<svg xmlns="http://www.w3.org/2000/svg" xmlns:xlink="http://www.w3.org/1999/xlink" width="1472" zoomAndPan="magnify" viewBox="0 0 1104 623.999998" height="832" preserveAspectRatio="xMidYMid meet" version="1.2"><defs/><g id="48df4769d2"><g style="fill:#f76c5e;fill-opacity:1;"><g transform="translate(457.109357, 395.114652)"><path style="stroke:none" d="M 55.421875 -64.421875 C 55.179688 -61.878906 55.015625 -59.410156 54.921875 -57.015625 C 54.828125 -54.617188 54.78125 -52.78125 54.78125 -51.5 C 54.78125 -50.101562 54.8125 -48.769531 54.875 -47.5 C 54.9375 -46.226562 55 -45.132812 55.0625 -44.21875 L 52.96875 -44.21875 C 52.351562 -48.769531 51.546875 -52.347656 50.546875 -54.953125 C 49.546875 -57.566406 48.101562 -59.445312 46.21875 -60.59375 C 44.34375 -61.75 41.644531 -62.328125 38.125 -62.328125 L 34.21875 -62.328125 L 34.21875 -10.46875 C 34.21875 -8.039062 34.441406 -6.21875 34.890625 -5 C 35.347656 -3.789062 36.257812 -2.988281 37.625 -2.59375 C 38.988281 -2.195312 40.976562 -1.9375 43.59375 -1.8125 L 43.59375 0 C 41.894531 -0.125 39.707031 -0.195312 37.03125 -0.21875 C 34.363281 -0.25 31.632812 -0.265625 28.84375 -0.265625 C 25.9375 -0.265625 23.191406 -0.25 20.609375 -0.21875 C 18.035156 -0.195312 15.957031 -0.125 14.375 0 L 14.375 -1.8125 C 16.988281 -1.9375 18.960938 -2.195312 20.296875 -2.59375 C 21.628906 -2.988281 22.535156 -3.789062 23.015625 -5 C 23.503906 -6.21875 23.75 -8.039062 23.75 -10.46875 L 23.75 -62.328125 L 19.75 -62.328125 C 16.351562 -62.328125 13.679688 -61.75 11.734375 -60.59375 C 9.796875 -59.445312 8.34375 -57.566406 7.375 -54.953125 C 6.40625 -52.347656 5.613281 -48.769531 5 -44.21875 L 2.90625 -44.21875 C 3.03125 -45.132812 3.109375 -46.226562 3.140625 -47.5 C 3.171875 -48.769531 3.1875 -50.101562 3.1875 -51.5 C 3.1875 -52.78125 3.140625 -54.617188 3.046875 -57.015625 C 2.953125 -59.410156 2.785156 -61.878906 2.546875 -64.421875 C 5.160156 -64.367188 8.015625 -64.3125 11.109375 -64.25 C 14.203125 -64.1875 17.320312 -64.15625 20.46875 -64.15625 C 23.625 -64.15625 26.476562 -64.15625 29.03125 -64.15625 C 31.570312 -64.15625 34.390625 -64.15625 37.484375 -64.15625 C 40.585938 -64.15625 43.710938 -64.1875 46.859375 -64.25 C 50.015625 -64.3125 52.867188 -64.367188 55.421875 -64.421875 Z M 55.421875 -64.421875 "/></g></g><g style="fill:#f76c5e;fill-opacity:1;"><g transform="translate(515.528845, 395.114652)"><path style="stroke:none" d="M 31.765625 -48.234375 C 33.515625 -48.234375 35.007812 -47.867188 36.25 -47.140625 C 37.5 -46.410156 38.441406 -45.484375 39.078125 -44.359375 C 39.722656 -43.234375 40.046875 -41.976562 40.046875 -40.59375 C 40.046875 -38.832031 39.515625 -37.328125 38.453125 -36.078125 C 37.390625 -34.835938 35.976562 -34.21875 34.21875 -34.21875 C 32.695312 -34.21875 31.40625 -34.671875 30.34375 -35.578125 C 29.28125 -36.492188 28.75 -37.738281 28.75 -39.3125 C 28.75 -40.644531 29.097656 -41.78125 29.796875 -42.71875 C 30.492188 -43.664062 31.300781 -44.410156 32.21875 -44.953125 C 31.601562 -45.441406 30.875 -45.65625 30.03125 -45.59375 C 28.394531 -45.53125 26.878906 -45 25.484375 -44 C 24.085938 -43 22.898438 -41.722656 21.921875 -40.171875 C 20.953125 -38.628906 20.195312 -36.976562 19.65625 -35.21875 C 19.113281 -33.457031 18.84375 -31.816406 18.84375 -30.296875 L 18.84375 -9.375 C 18.84375 -6.394531 19.660156 -4.40625 21.296875 -3.40625 C 22.929688 -2.40625 25.207031 -1.90625 28.125 -1.90625 L 28.125 0 C 26.726562 -0.0625 24.738281 -0.132812 22.15625 -0.21875 C 19.582031 -0.3125 16.867188 -0.359375 14.015625 -0.359375 C 11.828125 -0.359375 9.640625 -0.3125 7.453125 -0.21875 C 5.273438 -0.132812 3.609375 -0.0625 2.453125 0 L 2.453125 -1.90625 C 4.816406 -1.90625 6.5 -2.359375 7.5 -3.265625 C 8.507812 -4.179688 9.015625 -5.914062 9.015625 -8.46875 L 9.015625 -37.03125 C 9.015625 -39.757812 8.554688 -41.773438 7.640625 -43.078125 C 6.734375 -44.390625 5.003906 -45.046875 2.453125 -45.046875 L 2.453125 -46.953125 C 4.398438 -46.773438 6.28125 -46.6875 8.09375 -46.6875 C 10.15625 -46.6875 12.082031 -46.789062 13.875 -47 C 15.664062 -47.207031 17.320312 -47.523438 18.84375 -47.953125 L 18.84375 -37.484375 C 19.5625 -39.242188 20.523438 -40.941406 21.734375 -42.578125 C 22.953125 -44.222656 24.410156 -45.578125 26.109375 -46.640625 C 27.816406 -47.703125 29.703125 -48.234375 31.765625 -48.234375 Z M 31.765625 -48.234375 "/></g></g><g style="fill:#f76c5e;fill-opacity:1;"><g transform="translate(557.114052, 395.114652)"><path style="stroke:none" d="M 15.28125 0.640625 C 12.738281 0.640625 10.554688 0.15625 8.734375 -0.8125 C 6.910156 -1.789062 5.546875 -3.128906 4.640625 -4.828125 C 3.734375 -6.523438 3.28125 -8.460938 3.28125 -10.640625 C 3.28125 -13.316406 3.882812 -15.488281 5.09375 -17.15625 C 6.3125 -18.820312 7.875 -20.171875 9.78125 -21.203125 C 11.695312 -22.234375 13.726562 -23.097656 15.875 -23.796875 C 18.03125 -24.492188 20.0625 -25.160156 21.96875 -25.796875 C 23.882812 -26.429688 25.460938 -27.171875 26.703125 -28.015625 C 27.953125 -28.867188 28.578125 -29.992188 28.578125 -31.390625 L 28.578125 -37.578125 C 28.578125 -39.765625 28.226562 -41.507812 27.53125 -42.8125 C 26.832031 -44.113281 25.890625 -45.035156 24.703125 -45.578125 C 23.523438 -46.128906 22.113281 -46.40625 20.46875 -46.40625 C 19.070312 -46.40625 17.585938 -46.207031 16.015625 -45.8125 C 14.441406 -45.425781 13.195312 -44.65625 12.28125 -43.5 C 13.613281 -43.132812 14.71875 -42.421875 15.59375 -41.359375 C 16.476562 -40.296875 16.921875 -38.976562 16.921875 -37.40625 C 16.921875 -35.707031 16.359375 -34.367188 15.234375 -33.390625 C 14.117188 -32.421875 12.710938 -31.9375 11.015625 -31.9375 C 9.128906 -31.9375 7.726562 -32.523438 6.8125 -33.703125 C 5.90625 -34.890625 5.453125 -36.273438 5.453125 -37.859375 C 5.453125 -39.492188 5.863281 -40.828125 6.6875 -41.859375 C 7.507812 -42.890625 8.585938 -43.859375 9.921875 -44.765625 C 11.378906 -45.742188 13.242188 -46.566406 15.515625 -47.234375 C 17.785156 -47.898438 20.316406 -48.234375 23.109375 -48.234375 C 25.722656 -48.234375 27.984375 -47.941406 29.890625 -47.359375 C 31.804688 -46.785156 33.398438 -45.863281 34.671875 -44.59375 C 36.191406 -43.195312 37.191406 -41.453125 37.671875 -39.359375 C 38.160156 -37.265625 38.40625 -34.734375 38.40625 -31.765625 L 38.40625 -6.640625 C 38.40625 -5.128906 38.597656 -4.050781 38.984375 -3.40625 C 39.378906 -2.769531 40.035156 -2.453125 40.953125 -2.453125 C 41.554688 -2.453125 42.144531 -2.601562 42.71875 -2.90625 C 43.300781 -3.207031 43.984375 -3.664062 44.765625 -4.28125 L 45.6875 -2.734375 C 44.40625 -1.703125 43.113281 -0.878906 41.8125 -0.265625 C 40.507812 0.335938 38.859375 0.640625 36.859375 0.640625 C 34.910156 0.640625 33.328125 0.335938 32.109375 -0.265625 C 30.898438 -0.878906 30.007812 -1.757812 29.4375 -2.90625 C 28.863281 -4.0625 28.578125 -5.488281 28.578125 -7.1875 C 26.992188 -4.632812 25.109375 -2.691406 22.921875 -1.359375 C 20.742188 -0.0234375 18.195312 0.640625 15.28125 0.640625 Z M 19.65625 -3.734375 C 21.351562 -3.734375 22.941406 -4.21875 24.421875 -5.1875 C 25.910156 -6.15625 27.296875 -7.613281 28.578125 -9.5625 L 28.578125 -27.65625 C 27.910156 -26.6875 26.9375 -25.851562 25.65625 -25.15625 C 24.382812 -24.457031 23.019531 -23.742188 21.5625 -23.015625 C 20.113281 -22.296875 18.734375 -21.460938 17.421875 -20.515625 C 16.117188 -19.578125 15.039062 -18.378906 14.1875 -16.921875 C 13.34375 -15.460938 12.921875 -13.613281 12.921875 -11.375 C 12.921875 -9.007812 13.523438 -7.144531 14.734375 -5.78125 C 15.953125 -4.414062 17.59375 -3.734375 19.65625 -3.734375 Z M 19.65625 -3.734375 "/></g></g><g style="fill:#f76c5e;fill-opacity:1;"><g transform="translate(603.522051, 395.114652)"><path style="stroke:none" d="M 13.390625 -69.890625 C 15.265625 -69.890625 16.835938 -69.296875 18.109375 -68.109375 C 19.390625 -66.929688 20.03125 -65.460938 20.03125 -63.703125 C 20.03125 -61.941406 19.390625 -60.46875 18.109375 -59.28125 C 16.835938 -58.101562 15.265625 -57.515625 13.390625 -57.515625 C 11.503906 -57.515625 9.921875 -58.101562 8.640625 -59.28125 C 7.367188 -60.46875 6.734375 -61.941406 6.734375 -63.703125 C 6.734375 -65.460938 7.367188 -66.929688 8.640625 -68.109375 C 9.921875 -69.296875 11.503906 -69.890625 13.390625 -69.890625 Z M 18.84375 -47.953125 L 18.84375 -8.46875 C 18.84375 -5.914062 19.34375 -4.179688 20.34375 -3.265625 C 21.34375 -2.359375 23.023438 -1.90625 25.390625 -1.90625 L 25.390625 0 C 24.359375 -0.0625 22.765625 -0.132812 20.609375 -0.21875 C 18.453125 -0.3125 16.253906 -0.359375 14.015625 -0.359375 C 11.890625 -0.359375 9.703125 -0.3125 7.453125 -0.21875 C 5.210938 -0.132812 3.546875 -0.0625 2.453125 0 L 2.453125 -1.90625 C 4.816406 -1.90625 6.5 -2.359375 7.5 -3.265625 C 8.507812 -4.179688 9.015625 -5.914062 9.015625 -8.46875 L 9.015625 -37.03125 C 9.015625 -39.757812 8.554688 -41.773438 7.640625 -43.078125 C 6.734375 -44.390625 5.003906 -45.046875 2.453125 -45.046875 L 2.453125 -46.953125 C 4.398438 -46.773438 6.28125 -46.6875 8.09375 -46.6875 C 10.15625 -46.6875 12.082031 -46.789062 13.875 -47 C 15.664062 -47.207031 17.320312 -47.523438 18.84375 -47.953125 Z M 18.84375 -47.953125 "/></g></g><g style="fill:#f76c5e;fill-opacity:1;"><g transform="translate(631.275861, 395.114652)"><path style="stroke:none" d="M 18.296875 -71.34375 L 18.296875 -8.46875 C 18.296875 -5.914062 18.796875 -4.179688 19.796875 -3.265625 C 20.796875 -2.359375 22.476562 -1.90625 24.84375 -1.90625 L 24.84375 0 C 23.8125 -0.0625 22.203125 -0.132812 20.015625 -0.21875 C 17.835938 -0.3125 15.65625 -0.359375 13.46875 -0.359375 C 11.28125 -0.359375 9.078125 -0.3125 6.859375 -0.21875 C 4.648438 -0.132812 3 -0.0625 1.90625 0 L 1.90625 -1.90625 C 4.269531 -1.90625 5.953125 -2.359375 6.953125 -3.265625 C 7.960938 -4.179688 8.46875 -5.914062 8.46875 -8.46875 L 8.46875 -60.421875 C 8.46875 -63.148438 8.007812 -65.164062 7.09375 -66.46875 C 6.1875 -67.78125 4.457031 -68.4375 1.90625 -68.4375 L 1.90625 -70.34375 C 3.851562 -70.15625 5.734375 -70.0625 7.546875 -70.0625 C 9.554688 -70.0625 11.46875 -70.164062 13.28125 -70.375 C 15.101562 -70.59375 16.773438 -70.914062 18.296875 -71.34375 Z M 18.296875 -71.34375 "/></g></g><g style="fill:#f76c5e;fill-opacity:1;"><g transform="translate(658.483707, 395.114652)"><path style="stroke:none" d="M 19.390625 -48.234375 C 21.804688 -48.234375 23.910156 -47.851562 25.703125 -47.09375 C 27.492188 -46.332031 28.785156 -45.648438 29.578125 -45.046875 C 31.578125 -43.460938 32.820312 -44.492188 33.3125 -48.140625 L 35.3125 -48.140625 C 35.1875 -46.441406 35.09375 -44.394531 35.03125 -42 C 34.96875 -39.601562 34.9375 -36.429688 34.9375 -32.484375 L 32.9375 -32.484375 C 32.570312 -34.734375 31.945312 -36.914062 31.0625 -39.03125 C 30.1875 -41.15625 28.914062 -42.914062 27.25 -44.3125 C 25.582031 -45.707031 23.414062 -46.40625 20.75 -46.40625 C 18.75 -46.40625 17.078125 -45.84375 15.734375 -44.71875 C 14.398438 -43.601562 13.734375 -41.953125 13.734375 -39.765625 C 13.734375 -37.941406 14.28125 -36.363281 15.375 -35.03125 C 16.46875 -33.695312 17.878906 -32.453125 19.609375 -31.296875 C 21.335938 -30.148438 23.203125 -28.910156 25.203125 -27.578125 C 27.453125 -26.054688 29.46875 -24.550781 31.25 -23.0625 C 33.039062 -21.582031 34.46875 -19.929688 35.53125 -18.109375 C 36.59375 -16.285156 37.125 -14.160156 37.125 -11.734375 C 37.125 -8.941406 36.378906 -6.578125 34.890625 -4.640625 C 33.410156 -2.703125 31.457031 -1.226562 29.03125 -0.21875 C 26.601562 0.78125 23.929688 1.28125 21.015625 1.28125 C 19.566406 1.28125 18.203125 1.140625 16.921875 0.859375 C 15.648438 0.585938 14.46875 0.238281 13.375 -0.1875 C 12.707031 -0.550781 12.054688 -0.925781 11.421875 -1.3125 C 10.785156 -1.707031 10.164062 -2.085938 9.5625 -2.453125 C 8.945312 -2.878906 8.394531 -2.816406 7.90625 -2.265625 C 7.425781 -1.722656 7.066406 -0.753906 6.828125 0.640625 L 4.828125 0.640625 C 4.941406 -1.304688 5.03125 -3.671875 5.09375 -6.453125 C 5.15625 -9.242188 5.1875 -12.945312 5.1875 -17.5625 L 7.1875 -17.5625 C 7.613281 -14.226562 8.25 -11.285156 9.09375 -8.734375 C 9.945312 -6.179688 11.207031 -4.191406 12.875 -2.765625 C 14.539062 -1.347656 16.832031 -0.640625 19.75 -0.640625 C 20.894531 -0.640625 22.046875 -0.894531 23.203125 -1.40625 C 24.359375 -1.925781 25.3125 -2.757812 26.0625 -3.90625 C 26.820312 -5.0625 27.203125 -6.609375 27.203125 -8.546875 C 27.203125 -11.222656 26.273438 -13.425781 24.421875 -15.15625 C 22.578125 -16.882812 20.203125 -18.71875 17.296875 -20.65625 C 15.234375 -22.113281 13.273438 -23.554688 11.421875 -24.984375 C 9.566406 -26.410156 8.0625 -28.015625 6.90625 -29.796875 C 5.757812 -31.585938 5.1875 -33.726562 5.1875 -36.21875 C 5.1875 -38.945312 5.835938 -41.191406 7.140625 -42.953125 C 8.441406 -44.710938 10.1875 -46.03125 12.375 -46.90625 C 14.5625 -47.789062 16.898438 -48.234375 19.390625 -48.234375 Z M 19.390625 -48.234375 "/></g></g><g style="fill:#e09f3e;fill-opacity:1;"><g transform="translate(455.859365, 312.192971)"><path style="stroke:none" d="M 31.40625 -70.796875 L 31.40625 -68.796875 C 29.132812 -68.734375 27.414062 -68.484375 26.25 -68.046875 C 25.082031 -67.617188 24.296875 -66.820312 23.890625 -65.65625 C 23.492188 -64.488281 23.296875 -62.671875 23.296875 -60.203125 L 23.296875 -10.203125 C 23.296875 -7.929688 23.476562 -6.226562 23.84375 -5.09375 C 24.21875 -3.96875 24.953125 -3.21875 26.046875 -2.84375 C 27.148438 -2.476562 28.734375 -2.296875 30.796875 -2.296875 L 37.296875 -2.296875 C 40.160156 -2.296875 42.578125 -2.695312 44.546875 -3.5 C 46.515625 -4.300781 48.164062 -5.5 49.5 -7.09375 C 50.832031 -8.695312 51.863281 -10.765625 52.59375 -13.296875 C 53.332031 -15.828125 53.898438 -18.796875 54.296875 -22.203125 L 56.59375 -22.203125 C 56.394531 -20.066406 56.296875 -17.265625 56.296875 -13.796875 C 56.296875 -12.460938 56.34375 -10.507812 56.4375 -7.9375 C 56.539062 -5.375 56.726562 -2.726562 57 0 C 53.601562 -0.132812 49.769531 -0.21875 45.5 -0.25 C 41.226562 -0.28125 37.425781 -0.296875 34.09375 -0.296875 C 32.5625 -0.296875 30.59375 -0.296875 28.1875 -0.296875 C 25.789062 -0.296875 23.207031 -0.28125 20.4375 -0.25 C 17.675781 -0.21875 14.878906 -0.179688 12.046875 -0.140625 C 9.210938 -0.109375 6.5 -0.0625 3.90625 0 L 3.90625 -2 C 6.164062 -2.132812 7.863281 -2.398438 9 -2.796875 C 10.132812 -3.203125 10.882812 -4.003906 11.25 -5.203125 C 11.613281 -6.398438 11.796875 -8.195312 11.796875 -10.59375 L 11.796875 -60.203125 C 11.796875 -62.671875 11.613281 -64.488281 11.25 -65.65625 C 10.882812 -66.820312 10.117188 -67.617188 8.953125 -68.046875 C 7.785156 -68.484375 6.101562 -68.734375 3.90625 -68.796875 L 3.90625 -70.796875 C 5.4375 -70.734375 7.414062 -70.664062 9.84375 -70.59375 C 12.28125 -70.53125 14.898438 -70.5 17.703125 -70.5 C 20.234375 -70.5 22.75 -70.53125 25.25 -70.59375 C 27.75 -70.664062 29.800781 -70.734375 31.40625 -70.796875 Z M 31.40625 -70.796875 "/></g></g><g style="fill:#e09f3e;fill-opacity:1;"><g transform="translate(515.957061, 312.192971)"><path style="stroke:none" d="M 16.796875 0.703125 C 13.992188 0.703125 11.59375 0.171875 9.59375 -0.890625 C 7.59375 -1.960938 6.09375 -3.429688 5.09375 -5.296875 C 4.09375 -7.160156 3.59375 -9.296875 3.59375 -11.703125 C 3.59375 -14.628906 4.257812 -17.007812 5.59375 -18.84375 C 6.925781 -20.675781 8.644531 -22.160156 10.75 -23.296875 C 12.851562 -24.429688 15.085938 -25.378906 17.453125 -26.140625 C 19.816406 -26.910156 22.046875 -27.644531 24.140625 -28.34375 C 26.242188 -29.050781 27.976562 -29.867188 29.34375 -30.796875 C 30.71875 -31.734375 31.40625 -32.96875 31.40625 -34.5 L 31.40625 -41.296875 C 31.40625 -43.703125 31.019531 -45.617188 30.25 -47.046875 C 29.476562 -48.484375 28.441406 -49.5 27.140625 -50.09375 C 25.847656 -50.695312 24.300781 -51 22.5 -51 C 20.96875 -51 19.332031 -50.78125 17.59375 -50.34375 C 15.863281 -49.914062 14.5 -49.066406 13.5 -47.796875 C 14.96875 -47.398438 16.179688 -46.617188 17.140625 -45.453125 C 18.109375 -44.285156 18.59375 -42.832031 18.59375 -41.09375 C 18.59375 -39.226562 17.976562 -37.757812 16.75 -36.6875 C 15.519531 -35.625 13.96875 -35.09375 12.09375 -35.09375 C 10.03125 -35.09375 8.5 -35.742188 7.5 -37.046875 C 6.5 -38.347656 6 -39.863281 6 -41.59375 C 6 -43.394531 6.445312 -44.863281 7.34375 -46 C 8.25 -47.132812 9.4375 -48.203125 10.90625 -49.203125 C 12.5 -50.265625 14.546875 -51.160156 17.046875 -51.890625 C 19.546875 -52.628906 22.332031 -53 25.40625 -53 C 28.269531 -53 30.75 -52.679688 32.84375 -52.046875 C 34.945312 -51.410156 36.695312 -50.394531 38.09375 -49 C 39.757812 -47.46875 40.859375 -45.550781 41.390625 -43.25 C 41.929688 -40.945312 42.203125 -38.164062 42.203125 -34.90625 L 42.203125 -7.296875 C 42.203125 -5.628906 42.414062 -4.445312 42.84375 -3.75 C 43.28125 -3.050781 44 -2.703125 45 -2.703125 C 45.664062 -2.703125 46.316406 -2.867188 46.953125 -3.203125 C 47.585938 -3.535156 48.335938 -4.035156 49.203125 -4.703125 L 50.203125 -3 C 48.796875 -1.863281 47.375 -0.960938 45.9375 -0.296875 C 44.507812 0.367188 42.695312 0.703125 40.5 0.703125 C 38.363281 0.703125 36.628906 0.367188 35.296875 -0.296875 C 33.960938 -0.960938 32.976562 -1.925781 32.34375 -3.1875 C 31.71875 -4.457031 31.40625 -6.03125 31.40625 -7.90625 C 29.664062 -5.101562 27.59375 -2.96875 25.1875 -1.5 C 22.789062 -0.03125 19.992188 0.703125 16.796875 0.703125 Z M 21.59375 -4.09375 C 23.46875 -4.09375 25.21875 -4.625 26.84375 -5.6875 C 28.476562 -6.757812 30 -8.363281 31.40625 -10.5 L 31.40625 -30.40625 C 30.664062 -29.332031 29.59375 -28.410156 28.1875 -27.640625 C 26.789062 -26.878906 25.289062 -26.097656 23.6875 -25.296875 C 22.09375 -24.492188 20.578125 -23.578125 19.140625 -22.546875 C 17.710938 -21.515625 16.53125 -20.195312 15.59375 -18.59375 C 14.664062 -17 14.203125 -14.96875 14.203125 -12.5 C 14.203125 -9.894531 14.867188 -7.84375 16.203125 -6.34375 C 17.535156 -4.84375 19.332031 -4.09375 21.59375 -4.09375 Z M 21.59375 -4.09375 "/></g></g><g style="fill:#e09f3e;fill-opacity:1;"><g transform="translate(566.955102, 312.192971)"><path style="stroke:none" d="M 20 -78.40625 L 20 -9.296875 C 20 -6.492188 20.484375 -4.59375 21.453125 -3.59375 C 22.421875 -2.59375 24.070312 -2.09375 26.40625 -2.09375 L 26.40625 0 C 25.269531 -0.0625 23.582031 -0.144531 21.34375 -0.25 C 19.113281 -0.351562 16.863281 -0.40625 14.59375 -0.40625 C 12.257812 -0.40625 9.875 -0.351562 7.4375 -0.25 C 5.007812 -0.144531 3.195312 -0.0625 2 0 L 2 -2.09375 C 4.601562 -2.09375 6.453125 -2.59375 7.546875 -3.59375 C 8.648438 -4.59375 9.203125 -6.492188 9.203125 -9.296875 L 9.203125 -66.40625 C 9.203125 -69.40625 8.679688 -71.617188 7.640625 -73.046875 C 6.609375 -74.484375 4.726562 -75.203125 2 -75.203125 L 2 -77.296875 C 4.132812 -77.097656 6.203125 -77 8.203125 -77 C 10.398438 -77 12.5 -77.113281 14.5 -77.34375 C 16.5 -77.582031 18.332031 -77.9375 20 -78.40625 Z M 52 -51.59375 L 52 -49.59375 C 50.195312 -49.332031 48.460938 -48.734375 46.796875 -47.796875 C 45.128906 -46.867188 43.5 -45.570312 41.90625 -43.90625 L 29.90625 -31.296875 L 31.203125 -33.796875 L 49.296875 -7.296875 C 50.296875 -5.898438 51.257812 -4.75 52.1875 -3.84375 C 53.125 -2.945312 54.296875 -2.363281 55.703125 -2.09375 L 55.703125 0 C 54.835938 -0.0625 53.550781 -0.144531 51.84375 -0.25 C 50.144531 -0.351562 48.460938 -0.40625 46.796875 -0.40625 C 44.597656 -0.40625 42.363281 -0.351562 40.09375 -0.25 C 37.832031 -0.144531 36.164062 -0.0625 35.09375 0 L 35.09375 -2.09375 C 36.425781 -2.09375 37.34375 -2.425781 37.84375 -3.09375 C 38.34375 -3.757812 38.257812 -4.5625 37.59375 -5.5 L 26.59375 -22.703125 C 25.46875 -24.296875 24.4375 -25.328125 23.5 -25.796875 C 22.5625 -26.265625 21.226562 -26.53125 19.5 -26.59375 L 19.5 -28.59375 C 21.4375 -28.800781 23.019531 -29.171875 24.25 -29.703125 C 25.476562 -30.234375 26.628906 -31.097656 27.703125 -32.296875 L 35.203125 -39.90625 C 37.335938 -42.03125 38.40625 -43.8125 38.40625 -45.25 C 38.40625 -46.6875 37.71875 -47.753906 36.34375 -48.453125 C 34.976562 -49.148438 33.164062 -49.53125 30.90625 -49.59375 L 30.90625 -51.59375 C 32.695312 -51.53125 34.675781 -51.445312 36.84375 -51.34375 C 39.007812 -51.25 40.828125 -51.203125 42.296875 -51.203125 C 43.492188 -51.203125 44.707031 -51.21875 45.9375 -51.25 C 47.175781 -51.28125 48.328125 -51.328125 49.390625 -51.390625 C 50.460938 -51.460938 51.332031 -51.53125 52 -51.59375 Z M 52 -51.59375 "/></g></g><g style="fill:#e09f3e;fill-opacity:1;"><g transform="translate(623.652929, 312.192971)"><path style="stroke:none" d="M 21.296875 -53 C 23.960938 -53 26.28125 -52.582031 28.25 -51.75 C 30.21875 -50.914062 31.632812 -50.164062 32.5 -49.5 C 34.695312 -47.769531 36.0625 -48.90625 36.59375 -52.90625 L 38.796875 -52.90625 C 38.660156 -51.03125 38.5625 -48.773438 38.5 -46.140625 C 38.4375 -43.515625 38.40625 -40.035156 38.40625 -35.703125 L 36.203125 -35.703125 C 35.796875 -38.171875 35.109375 -40.570312 34.140625 -42.90625 C 33.179688 -45.238281 31.785156 -47.171875 29.953125 -48.703125 C 28.117188 -50.234375 25.734375 -51 22.796875 -51 C 20.597656 -51 18.765625 -50.378906 17.296875 -49.140625 C 15.828125 -47.910156 15.09375 -46.097656 15.09375 -43.703125 C 15.09375 -41.703125 15.691406 -39.96875 16.890625 -38.5 C 18.097656 -37.03125 19.648438 -35.660156 21.546875 -34.390625 C 23.453125 -33.128906 25.503906 -31.765625 27.703125 -30.296875 C 30.171875 -28.628906 32.382812 -26.976562 34.34375 -25.34375 C 36.3125 -23.71875 37.878906 -21.90625 39.046875 -19.90625 C 40.210938 -17.90625 40.796875 -15.570312 40.796875 -12.90625 C 40.796875 -9.832031 39.976562 -7.226562 38.34375 -5.09375 C 36.71875 -2.96875 34.570312 -1.351562 31.90625 -0.25 C 29.238281 0.851562 26.300781 1.40625 23.09375 1.40625 C 21.5 1.40625 20 1.253906 18.59375 0.953125 C 17.195312 0.648438 15.898438 0.265625 14.703125 -0.203125 C 13.960938 -0.597656 13.242188 -1.007812 12.546875 -1.4375 C 11.847656 -1.875 11.164062 -2.296875 10.5 -2.703125 C 9.832031 -3.171875 9.234375 -3.101562 8.703125 -2.5 C 8.171875 -1.894531 7.769531 -0.828125 7.5 0.703125 L 5.296875 0.703125 C 5.429688 -1.429688 5.53125 -4.03125 5.59375 -7.09375 C 5.664062 -10.164062 5.703125 -14.234375 5.703125 -19.296875 L 7.90625 -19.296875 C 8.363281 -15.628906 9.0625 -12.394531 10 -9.59375 C 10.9375 -6.800781 12.320312 -4.617188 14.15625 -3.046875 C 15.988281 -1.484375 18.503906 -0.703125 21.703125 -0.703125 C 22.960938 -0.703125 24.226562 -0.984375 25.5 -1.546875 C 26.769531 -2.117188 27.820312 -3.035156 28.65625 -4.296875 C 29.488281 -5.566406 29.90625 -7.269531 29.90625 -9.40625 C 29.90625 -12.332031 28.882812 -14.742188 26.84375 -16.640625 C 24.8125 -18.546875 22.195312 -20.566406 19 -22.703125 C 16.726562 -24.296875 14.578125 -25.875 12.546875 -27.4375 C 10.515625 -29.007812 8.863281 -30.78125 7.59375 -32.75 C 6.332031 -34.71875 5.703125 -37.066406 5.703125 -39.796875 C 5.703125 -42.796875 6.414062 -45.257812 7.84375 -47.1875 C 9.28125 -49.125 11.195312 -50.578125 13.59375 -51.546875 C 16 -52.515625 18.566406 -53 21.296875 -53 Z M 21.296875 -53 "/></g></g><g style="fill:#e09f3e;fill-opacity:1;"><g transform="translate(669.351177, 312.192971)"><path style="stroke:none" d="M 20 -78.296875 L 20 -41.90625 C 21.664062 -46.03125 24.015625 -48.910156 27.046875 -50.546875 C 30.078125 -52.179688 33.296875 -53 36.703125 -53 C 39.367188 -53 41.550781 -52.648438 43.25 -51.953125 C 44.945312 -51.253906 46.363281 -50.300781 47.5 -49.09375 C 48.695312 -47.832031 49.5625 -46.203125 50.09375 -44.203125 C 50.632812 -42.203125 50.90625 -39.5 50.90625 -36.09375 L 50.90625 -9.296875 C 50.90625 -6.492188 51.453125 -4.59375 52.546875 -3.59375 C 53.648438 -2.59375 55.5 -2.09375 58.09375 -2.09375 L 58.09375 0 C 56.894531 -0.0625 55.09375 -0.144531 52.6875 -0.25 C 50.289062 -0.351562 47.960938 -0.40625 45.703125 -0.40625 C 43.367188 -0.40625 41.082031 -0.351562 38.84375 -0.25 C 36.613281 -0.144531 34.96875 -0.0625 33.90625 0 L 33.90625 -2.09375 C 36.164062 -2.09375 37.757812 -2.59375 38.6875 -3.59375 C 39.625 -4.59375 40.09375 -6.492188 40.09375 -9.296875 L 40.09375 -38.90625 C 40.09375 -40.832031 39.925781 -42.578125 39.59375 -44.140625 C 39.257812 -45.710938 38.539062 -46.984375 37.4375 -47.953125 C 36.34375 -48.921875 34.726562 -49.40625 32.59375 -49.40625 C 30.195312 -49.40625 28.046875 -48.71875 26.140625 -47.34375 C 24.242188 -45.976562 22.742188 -44.09375 21.640625 -41.6875 C 20.546875 -39.289062 20 -36.5625 20 -33.5 L 20 -9.296875 C 20 -6.492188 20.460938 -4.59375 21.390625 -3.59375 C 22.328125 -2.59375 23.929688 -2.09375 26.203125 -2.09375 L 26.203125 0 C 25.066406 -0.0625 23.414062 -0.144531 21.25 -0.25 C 19.082031 -0.351562 16.863281 -0.40625 14.59375 -0.40625 C 12.257812 -0.40625 9.875 -0.351562 7.4375 -0.25 C 5.007812 -0.144531 3.195312 -0.0625 2 0 L 2 -2.09375 C 4.601562 -2.09375 6.453125 -2.59375 7.546875 -3.59375 C 8.648438 -4.59375 9.203125 -6.492188 9.203125 -9.296875 L 9.203125 -66.296875 C 9.203125 -69.296875 8.679688 -71.507812 7.640625 -72.9375 C 6.609375 -74.375 4.726562 -75.09375 2 -75.09375 L 2 -77.203125 C 4.132812 -77.003906 6.203125 -76.90625 8.203125 -76.90625 C 10.398438 -76.90625 12.5 -77.019531 14.5 -77.25 C 16.5 -77.476562 18.332031 -77.828125 20 -78.296875 Z M 20 -78.296875 "/></g></g><g style="fill:#e09f3e;fill-opacity:1;"><g transform="translate(729.348886, 312.192971)"><path style="stroke:none" d="M 36.796875 -53 C 39.328125 -53 41.457031 -52.648438 43.1875 -51.953125 C 44.925781 -51.253906 46.332031 -50.300781 47.40625 -49.09375 C 48.601562 -47.832031 49.429688 -46.148438 49.890625 -44.046875 C 50.359375 -41.953125 50.59375 -39.300781 50.59375 -36.09375 L 50.59375 -9.296875 C 50.59375 -6.492188 51.125 -4.59375 52.1875 -3.59375 C 53.257812 -2.59375 55.0625 -2.09375 57.59375 -2.09375 L 57.59375 0 C 56.46875 -0.0625 54.71875 -0.144531 52.34375 -0.25 C 49.976562 -0.351562 47.664062 -0.40625 45.40625 -0.40625 C 43.132812 -0.40625 40.914062 -0.351562 38.75 -0.25 C 36.582031 -0.144531 34.929688 -0.0625 33.796875 0 L 33.796875 -2.09375 C 35.992188 -2.09375 37.539062 -2.59375 38.4375 -3.59375 C 39.34375 -4.59375 39.796875 -6.492188 39.796875 -9.296875 L 39.796875 -38.90625 C 39.796875 -40.832031 39.660156 -42.578125 39.390625 -44.140625 C 39.128906 -45.710938 38.515625 -46.984375 37.546875 -47.953125 C 36.578125 -48.921875 35.0625 -49.40625 33 -49.40625 C 30.664062 -49.40625 28.582031 -48.703125 26.75 -47.296875 C 24.914062 -45.898438 23.445312 -43.984375 22.34375 -41.546875 C 21.25 -39.117188 20.703125 -36.40625 20.703125 -33.40625 L 20.703125 -9.296875 C 20.703125 -6.492188 21.164062 -4.59375 22.09375 -3.59375 C 23.03125 -2.59375 24.566406 -2.09375 26.703125 -2.09375 L 26.703125 0 C 25.628906 -0.0625 24.023438 -0.144531 21.890625 -0.25 C 19.765625 -0.351562 17.566406 -0.40625 15.296875 -0.40625 C 13.035156 -0.40625 10.671875 -0.351562 8.203125 -0.25 C 5.734375 -0.144531 3.898438 -0.0625 2.703125 0 L 2.703125 -2.09375 C 5.296875 -2.09375 7.144531 -2.59375 8.25 -3.59375 C 9.351562 -4.59375 9.90625 -6.492188 9.90625 -9.296875 L 9.90625 -40.703125 C 9.90625 -43.703125 9.40625 -45.914062 8.40625 -47.34375 C 7.40625 -48.78125 5.503906 -49.5 2.703125 -49.5 L 2.703125 -51.59375 C 4.835938 -51.394531 6.90625 -51.296875 8.90625 -51.296875 C 11.164062 -51.296875 13.28125 -51.410156 15.25 -51.640625 C 17.21875 -51.878906 19.035156 -52.234375 20.703125 -52.703125 L 20.703125 -41.796875 C 22.429688 -45.796875 24.742188 -48.660156 27.640625 -50.390625 C 30.546875 -52.128906 33.597656 -53 36.796875 -53 Z M 66.90625 -53 C 69.4375 -53 71.566406 -52.648438 73.296875 -51.953125 C 75.035156 -51.253906 76.4375 -50.300781 77.5 -49.09375 C 78.695312 -47.832031 79.53125 -46.148438 80 -44.046875 C 80.46875 -41.953125 80.703125 -39.300781 80.703125 -36.09375 L 80.703125 -9.296875 C 80.703125 -6.492188 81.25 -4.59375 82.34375 -3.59375 C 83.445312 -2.59375 85.300781 -2.09375 87.90625 -2.09375 L 87.90625 0 C 86.769531 -0.0625 85 -0.144531 82.59375 -0.25 C 80.195312 -0.351562 77.832031 -0.40625 75.5 -0.40625 C 73.226562 -0.40625 71.007812 -0.351562 68.84375 -0.25 C 66.675781 -0.144531 65.03125 -0.0625 63.90625 0 L 63.90625 -2.09375 C 66.101562 -2.09375 67.648438 -2.59375 68.546875 -3.59375 C 69.453125 -4.59375 69.90625 -6.492188 69.90625 -9.296875 L 69.90625 -38.90625 C 69.90625 -40.832031 69.769531 -42.578125 69.5 -44.140625 C 69.226562 -45.710938 68.59375 -46.984375 67.59375 -47.953125 C 66.59375 -48.921875 65.03125 -49.40625 62.90625 -49.40625 C 60.570312 -49.40625 58.488281 -48.6875 56.65625 -47.25 C 54.820312 -45.8125 53.351562 -43.875 52.25 -41.4375 C 51.144531 -39.007812 50.59375 -36.296875 50.59375 -33.296875 L 50.203125 -41.59375 C 52.003906 -46 54.421875 -49 57.453125 -50.59375 C 60.484375 -52.195312 63.632812 -53 66.90625 -53 Z M 66.90625 -53 "/></g></g><g style="fill:#e09f3e;fill-opacity:1;"><g transform="translate(819.245427, 312.192971)"><path style="stroke:none" d="M 14.703125 -76.796875 C 16.765625 -76.796875 18.492188 -76.144531 19.890625 -74.84375 C 21.296875 -73.550781 22 -71.9375 22 -70 C 22 -68.0625 21.296875 -66.441406 19.890625 -65.140625 C 18.492188 -63.847656 16.765625 -63.203125 14.703125 -63.203125 C 12.628906 -63.203125 10.890625 -63.847656 9.484375 -65.140625 C 8.085938 -66.441406 7.390625 -68.0625 7.390625 -70 C 7.390625 -71.9375 8.085938 -73.550781 9.484375 -74.84375 C 10.890625 -76.144531 12.628906 -76.796875 14.703125 -76.796875 Z M 20.703125 -52.703125 L 20.703125 -9.296875 C 20.703125 -6.492188 21.25 -4.59375 22.34375 -3.59375 C 23.445312 -2.59375 25.300781 -2.09375 27.90625 -2.09375 L 27.90625 0 C 26.769531 -0.0625 25.015625 -0.144531 22.640625 -0.25 C 20.273438 -0.351562 17.863281 -0.40625 15.40625 -0.40625 C 13.070312 -0.40625 10.671875 -0.351562 8.203125 -0.25 C 5.734375 -0.144531 3.898438 -0.0625 2.703125 0 L 2.703125 -2.09375 C 5.296875 -2.09375 7.144531 -2.59375 8.25 -3.59375 C 9.351562 -4.59375 9.90625 -6.492188 9.90625 -9.296875 L 9.90625 -40.703125 C 9.90625 -43.703125 9.40625 -45.914062 8.40625 -47.34375 C 7.40625 -48.78125 5.503906 -49.5 2.703125 -49.5 L 2.703125 -51.59375 C 4.835938 -51.394531 6.90625 -51.296875 8.90625 -51.296875 C 11.164062 -51.296875 13.28125 -51.410156 15.25 -51.640625 C 17.21875 -51.878906 19.035156 -52.234375 20.703125 -52.703125 Z M 20.703125 -52.703125 "/></g></g><path style=" stroke:none;fill-rule:nonzero;fill:#f76c5f;fill-opacity:1;" d="M 405.320312 294.203125 C 396.363281 293.457031 387.652344 287.484375 387.652344 287.484375 C 377.199219 288.976562 363.761719 290.46875 363.761719 290.46875 C 369.734375 283.25 385.164062 277.777344 385.164062 277.777344 C 388.398438 262.097656 420.996094 250.902344 431.695312 286.238281 C 442.394531 321.574219 403.828125 353.425781 403.828125 353.425781 C 430.453125 321.078125 414.28125 294.945312 405.320312 294.203125 "/><path style=" stroke:none;fill-rule:nonzero;fill:#f76c5f;fill-opacity:1;" d="M 409.351562 253.972656 C 408.957031 255.070312 408.375 256.085938 407.902344 257.121094 L 406.128906 260.046875 L 407.210938 256.84375 C 407.445312 255.742188 407.777344 254.675781 407.914062 253.582031 C 408.257812 251.402344 408.25 249.222656 407.964844 247.152344 C 407.597656 245.085938 406.902344 243.144531 405.882812 241.441406 C 405.351562 240.53125 404.65625 239.617188 403.929688 238.847656 C 403.015625 237.882812 402.945312 236.414062 403.789062 235.386719 L 403.882812 235.265625 C 405.027344 233.886719 407.207031 234.035156 408.132812 235.5625 C 408.925781 236.871094 409.484375 238.203125 409.976562 239.632812 C 410.777344 242.0625 411.066406 244.585938 410.949219 247.023438 C 410.753906 249.464844 410.210938 251.800781 409.351562 253.972656 "/><path style=" stroke:none;fill-rule:nonzero;fill:#f76c5f;fill-opacity:1;" d="M 402.269531 257.171875 C 401.980469 258.152344 401.601562 259.101562 401.277344 260.046875 C 401.359375 259.035156 401.496094 258.046875 401.53125 257.058594 C 401.457031 256.066406 401.566406 255.085938 401.339844 254.136719 C 401.144531 252.214844 400.375 250.453125 399.457031 248.933594 C 398.503906 247.414062 397.222656 246.171875 395.761719 245.222656 C 395.0625 244.765625 394.261719 244.347656 393.464844 244.007812 C 392.21875 243.476562 391.585938 242.085938 392.011719 240.796875 L 392.035156 240.726562 C 392.605469 239.03125 394.683594 238.398438 396.105469 239.480469 C 397.050781 240.199219 397.890625 240.988281 398.71875 241.863281 C 400.269531 243.542969 401.484375 245.550781 402.167969 247.683594 C 402.820312 249.8125 403.132812 252.011719 402.832031 254.109375 C 402.8125 255.164062 402.449219 256.164062 402.269531 257.171875 "/><path style=" stroke:none;fill-rule:nonzero;fill:#f76c5f;fill-opacity:1;" d="M 396.730469 256.125 C 397.300781 258.003906 397.238281 259.914062 397.125 261.726562 C 396.746094 259.929688 396.292969 258.164062 395.351562 256.710938 C 394.519531 255.207031 393.253906 254.09375 391.851562 253.429688 C 390.449219 252.75 388.890625 252.476562 387.316406 252.476562 C 386.621094 252.476562 385.875 252.527344 385.148438 252.632812 C 383.796875 252.824219 382.542969 251.878906 382.292969 250.53125 C 381.957031 248.753906 383.492188 247.21875 385.28125 247.476562 C 386.203125 247.605469 387.097656 247.804688 388.023438 248.054688 C 390.027344 248.621094 391.992188 249.574219 393.566406 250.988281 C 395.148438 252.378906 396.273438 254.222656 396.730469 256.125 "/><path style=" stroke:none;fill-rule:nonzero;fill:#f76c5f;fill-opacity:1;" d="M 366.683594 316.652344 C 370.078125 319.25 374.183594 321.246094 378.292969 322.59375 C 382.445312 323.945312 386.894531 324.476562 391.265625 323.695312 C 395.597656 322.894531 399.847656 320.765625 402.949219 317.34375 C 400.335938 321.15625 396.273438 324.007812 391.734375 325.503906 C 387.167969 326.984375 382.167969 327.082031 377.417969 326.222656 C 372.640625 325.332031 368.074219 323.839844 363.761719 321.429688 L 360.5 319.621094 C 359.222656 318.828125 358.136719 317.746094 356.875 316.890625 C 355.949219 316.261719 355.140625 315.476562 354.378906 314.648438 L 352.078125 312.140625 C 345.320312 304.492188 341.832031 294.699219 339.910156 285.082031 C 338.941406 280.230469 338.421875 275.332031 338.257812 270.429688 C 338.175781 268.121094 338.148438 265.875 338.203125 263.605469 C 338.304688 259.292969 342.3125 256.125 346.542969 256.960938 C 350.238281 257.695312 352.65625 261.230469 352.058594 264.953125 C 351.75 266.882812 351.5 268.855469 351.316406 270.765625 C 350.875 275.054688 350.75 279.371094 351.015625 283.636719 C 351.539062 292.125 353.363281 300.675781 358.019531 307.613281 L 359.585938 309.894531 C 360.132812 310.691406 360.726562 311.460938 361.457031 312.089844 C 362.390625 312.90625 363.152344 313.957031 364.125 314.757812 L 366.683594 316.652344 "/><path style=" stroke:none;fill-rule:nonzero;fill:#f76c5f;fill-opacity:1;" d="M 344.789062 314.464844 C 351.390625 320.316406 359.300781 324.78125 367.742188 328.027344 C 358.949219 325.972656 350.273438 322.59375 342.53125 317.4375 C 334.761719 312.339844 327.925781 305.636719 322.445312 297.925781 C 316.898438 290.246094 312.695312 281.617188 309.5625 272.644531 C 308 268.152344 306.714844 263.558594 305.6875 258.890625 C 305.191406 256.546875 304.726562 254.199219 304.371094 251.804688 C 304.277344 251.148438 304.183594 250.296875 304.09375 249.347656 C 303.703125 245.132812 307.0625 241.496094 311.292969 241.5625 C 315.191406 241.621094 318.3125 244.808594 318.308594 248.703125 C 318.308594 249.449219 318.3125 250.101562 318.316406 250.582031 C 318.335938 252.691406 318.457031 254.816406 318.605469 256.949219 C 318.941406 261.203125 319.519531 265.460938 320.359375 269.667969 C 322.050781 278.078125 324.734375 286.359375 328.789062 293.988281 C 332.777344 301.648438 338.15625 308.65625 344.789062 314.464844 "/><path style=" stroke:none;fill-rule:nonzero;fill:#f76c5f;fill-opacity:1;" d="M 332.835938 320.988281 C 341.472656 325.648438 350.96875 328.953125 360.777344 331.03125 C 350.792969 330.179688 340.8125 328.082031 331.261719 324.371094 C 321.742188 320.644531 312.703125 315.152344 305.027344 307.976562 C 297.328125 300.824219 290.953125 292.125 286.261719 282.578125 C 283.890625 277.808594 281.941406 272.832031 280.359375 267.71875 C 279.554688 265.160156 278.875 262.558594 278.289062 259.914062 C 278.265625 259.816406 278.246094 259.710938 278.226562 259.605469 C 277.339844 255.414062 280.492188 251.449219 284.777344 251.339844 L 285.085938 251.332031 C 288.722656 251.242188 291.773438 254.003906 292.105469 257.628906 C 292.109375 257.652344 292.109375 257.671875 292.113281 257.695312 C 292.324219 259.992188 292.628906 262.300781 293.046875 264.597656 C 293.859375 269.195312 295.011719 273.765625 296.570312 278.207031 C 299.640625 287.105469 304.292969 295.496094 310.421875 302.816406 C 316.535156 310.152344 324.21875 316.308594 332.835938 320.988281 "/><path style=" stroke:none;fill-rule:nonzero;fill:#f76c5f;fill-opacity:1;" d="M 267.03125 281.339844 L 267.320312 281.238281 C 270.734375 279.96875 274.515625 281.601562 276 284.921875 C 276.007812 284.945312 276.019531 284.964844 276.03125 284.984375 C 276.96875 287.085938 278.007812 289.171875 279.144531 291.210938 C 281.402344 295.296875 283.972656 299.246094 286.882812 302.949219 C 292.667969 310.371094 299.785156 316.808594 307.953125 321.75 C 316.113281 326.714844 325.375 330.054688 335.039062 331.691406 C 344.722656 333.308594 354.773438 333.363281 364.726562 332.152344 C 355.003906 334.582031 344.882812 335.824219 334.648438 335.402344 C 324.433594 334.957031 314.101562 332.683594 304.519531 328.375 C 294.921875 324.101562 286.074219 317.933594 278.542969 310.417969 C 274.757812 306.675781 271.300781 302.59375 268.148438 298.265625 C 266.5625 296.105469 265.078125 293.867188 263.667969 291.554688 C 263.613281 291.464844 263.558594 291.371094 263.503906 291.285156 C 261.3125 287.601562 263.011719 282.832031 267.03125 281.339844 "/><path style=" stroke:none;fill-rule:nonzero;fill:#f76c5f;fill-opacity:1;" d="M 358.164062 345.960938 C 394.746094 341.855469 405.933594 331.03125 405.933594 331.03125 C 405.933594 331.03125 404.824219 361.265625 378.320312 370.96875 C 351.816406 380.671875 332.035156 381.421875 326.4375 394.859375 C 326.4375 394.859375 321.582031 350.066406 358.164062 345.960938 "/><g style="fill:#000000;fill-opacity:1;"><g transform="translate(1041.599955, 580.599954)"><path style="stroke:none" d="M 9.484375 -1.15625 C 9.640625 -1.15625 9.773438 -1.097656 9.890625 -0.984375 C 10.003906 -0.867188 10.0625 -0.734375 10.0625 -0.578125 C 10.0625 -0.398438 10.003906 -0.257812 9.890625 -0.15625 C 9.773438 -0.0507812 9.640625 0 9.484375 0 L 1.984375 0 C 1.804688 0 1.65625 -0.046875 1.53125 -0.140625 C 1.40625 -0.242188 1.34375 -0.394531 1.34375 -0.59375 C 1.34375 -0.738281 1.394531 -0.878906 1.5 -1.015625 L 6.125 -6.125 C 6.851562 -6.914062 7.398438 -7.648438 7.765625 -8.328125 C 8.128906 -9.003906 8.3125 -9.609375 8.3125 -10.140625 C 8.3125 -11.015625 8.046875 -11.71875 7.515625 -12.25 C 6.984375 -12.789062 6.265625 -13.0625 5.359375 -13.0625 C 4.941406 -13.0625 4.53125 -12.972656 4.125 -12.796875 C 3.71875 -12.628906 3.359375 -12.40625 3.046875 -12.125 C 2.734375 -11.84375 2.488281 -11.519531 2.3125 -11.15625 C 2.238281 -11.019531 2.15625 -10.925781 2.0625 -10.875 C 1.976562 -10.820312 1.882812 -10.796875 1.78125 -10.796875 C 1.625 -10.796875 1.484375 -10.84375 1.359375 -10.9375 C 1.242188 -11.039062 1.1875 -11.164062 1.1875 -11.3125 C 1.1875 -11.40625 1.207031 -11.5 1.25 -11.59375 C 1.289062 -11.6875 1.359375 -11.796875 1.453125 -11.921875 C 1.691406 -12.335938 2.023438 -12.71875 2.453125 -13.0625 C 2.878906 -13.40625 3.359375 -13.679688 3.890625 -13.890625 C 4.421875 -14.097656 4.9375 -14.203125 5.4375 -14.203125 C 6.289062 -14.203125 7.023438 -14.035156 7.640625 -13.703125 C 8.265625 -13.378906 8.742188 -12.921875 9.078125 -12.328125 C 9.421875 -11.734375 9.59375 -11.03125 9.59375 -10.21875 C 9.59375 -9.53125 9.375 -8.773438 8.9375 -7.953125 C 8.507812 -7.128906 7.867188 -6.242188 7.015625 -5.296875 L 3.125 -0.921875 L 2.921875 -1.15625 Z M 9.484375 -1.15625 "/></g></g></g></svg>