<svg xmlns="http://www.w3.org/2000/svg" xmlns:xlink="http://www.w3.org/1999/xlink" width="1472" zoomAndPan="magnify" viewBox="0 0 1104 623.999998" height="832" preserveAspectRatio="xMidYMid meet" version="1.2"><defs><clipPath id="21390bea62"><path d="M 598 146.4375 L 606 146.4375 L 606 171 L 598 171 Z M 598 146.4375 "/></clipPath><clipPath id="211f5c1b88"><path d="M 528 234 L 602 234 L 602 293.4375 L 528 293.4375 Z M 528 234 "/></clipPath></defs><g id="9e54478bf1"><g style="fill:#f76c5e;fill-opacity:1;"><g transform="translate(452.054106, 466.316308)"><path style="stroke:none" d="M 45.671875 -53.09375 C 45.472656 -51 45.335938 -48.960938 45.265625 -46.984375 C 45.191406 -45.015625 45.15625 -43.503906 45.15625 -42.453125 C 45.15625 -41.296875 45.175781 -40.191406 45.21875 -39.140625 C 45.269531 -38.097656 45.320312 -37.203125 45.375 -36.453125 L 43.65625 -36.453125 C 43.15625 -40.203125 42.488281 -43.148438 41.65625 -45.296875 C 40.832031 -47.453125 39.644531 -49.003906 38.09375 -49.953125 C 36.550781 -50.898438 34.328125 -51.375 31.421875 -51.375 L 28.203125 -51.375 L 28.203125 -8.625 C 28.203125 -6.625 28.390625 -5.125 28.765625 -4.125 C 29.140625 -3.125 29.890625 -2.460938 31.015625 -2.140625 C 32.140625 -1.816406 33.773438 -1.601562 35.921875 -1.5 L 35.921875 0 C 34.523438 -0.101562 32.722656 -0.164062 30.515625 -0.1875 C 28.316406 -0.207031 26.070312 -0.21875 23.78125 -0.21875 C 21.375 -0.21875 19.109375 -0.207031 16.984375 -0.1875 C 14.859375 -0.164062 13.144531 -0.101562 11.84375 0 L 11.84375 -1.5 C 14 -1.601562 15.625 -1.816406 16.71875 -2.140625 C 17.820312 -2.460938 18.570312 -3.125 18.96875 -4.125 C 19.375 -5.125 19.578125 -6.625 19.578125 -8.625 L 19.578125 -51.375 L 16.28125 -51.375 C 13.476562 -51.375 11.273438 -50.898438 9.671875 -49.953125 C 8.078125 -49.003906 6.878906 -47.453125 6.078125 -45.296875 C 5.273438 -43.148438 4.625 -40.203125 4.125 -36.453125 L 2.40625 -36.453125 C 2.5 -37.203125 2.554688 -38.097656 2.578125 -39.140625 C 2.609375 -40.191406 2.625 -41.296875 2.625 -42.453125 C 2.625 -43.503906 2.585938 -45.015625 2.515625 -46.984375 C 2.441406 -48.960938 2.300781 -51 2.09375 -53.09375 C 4.25 -53.050781 6.597656 -53.003906 9.140625 -52.953125 C 11.691406 -52.898438 14.269531 -52.875 16.875 -52.875 C 19.476562 -52.875 21.828125 -52.875 23.921875 -52.875 C 26.023438 -52.875 28.347656 -52.875 30.890625 -52.875 C 33.441406 -52.875 36.019531 -52.898438 38.625 -52.953125 C 41.226562 -53.003906 43.578125 -53.050781 45.671875 -53.09375 Z M 45.671875 -53.09375 "/></g></g><g style="fill:#f76c5e;fill-opacity:1;"><g transform="translate(500.204056, 466.316308)"><path style="stroke:none" d="M 26.171875 -39.75 C 27.617188 -39.75 28.851562 -39.445312 29.875 -38.84375 C 30.90625 -38.25 31.679688 -37.488281 32.203125 -36.5625 C 32.734375 -35.632812 33 -34.597656 33 -33.453125 C 33 -32.003906 32.5625 -30.765625 31.6875 -29.734375 C 30.8125 -28.710938 29.648438 -28.203125 28.203125 -28.203125 C 26.953125 -28.203125 25.890625 -28.578125 25.015625 -29.328125 C 24.140625 -30.078125 23.703125 -31.101562 23.703125 -32.40625 C 23.703125 -33.5 23.988281 -34.429688 24.5625 -35.203125 C 25.132812 -35.984375 25.796875 -36.597656 26.546875 -37.046875 C 26.046875 -37.453125 25.445312 -37.628906 24.75 -37.578125 C 23.394531 -37.523438 22.144531 -37.085938 21 -36.265625 C 19.851562 -35.441406 18.878906 -34.390625 18.078125 -33.109375 C 17.273438 -31.835938 16.648438 -30.472656 16.203125 -29.015625 C 15.753906 -27.566406 15.53125 -26.21875 15.53125 -24.96875 L 15.53125 -7.71875 C 15.53125 -5.269531 16.203125 -3.632812 17.546875 -2.8125 C 18.898438 -1.988281 20.773438 -1.578125 23.171875 -1.578125 L 23.171875 0 C 22.023438 -0.0507812 20.390625 -0.113281 18.265625 -0.1875 C 16.140625 -0.257812 13.898438 -0.296875 11.546875 -0.296875 C 9.742188 -0.296875 7.941406 -0.257812 6.140625 -0.1875 C 4.347656 -0.113281 2.976562 -0.0507812 2.03125 0 L 2.03125 -1.578125 C 3.976562 -1.578125 5.363281 -1.953125 6.1875 -2.703125 C 7.007812 -3.453125 7.421875 -4.875 7.421875 -6.96875 L 7.421875 -30.53125 C 7.421875 -32.78125 7.046875 -34.441406 6.296875 -35.515625 C 5.546875 -36.585938 4.125 -37.125 2.03125 -37.125 L 2.03125 -38.703125 C 3.625 -38.546875 5.171875 -38.46875 6.671875 -38.46875 C 8.367188 -38.46875 9.957031 -38.554688 11.4375 -38.734375 C 12.914062 -38.910156 14.28125 -39.175781 15.53125 -39.53125 L 15.53125 -30.90625 C 16.125 -32.351562 16.921875 -33.75 17.921875 -35.09375 C 18.921875 -36.445312 20.117188 -37.5625 21.515625 -38.4375 C 22.921875 -39.3125 24.472656 -39.75 26.171875 -39.75 Z M 26.171875 -39.75 "/></g></g><g style="fill:#f76c5e;fill-opacity:1;"><g transform="translate(534.479018, 466.316308)"><path style="stroke:none" d="M 12.59375 0.53125 C 10.5 0.53125 8.703125 0.128906 7.203125 -0.671875 C 5.703125 -1.472656 4.578125 -2.570312 3.828125 -3.96875 C 3.078125 -5.375 2.703125 -6.976562 2.703125 -8.78125 C 2.703125 -10.976562 3.203125 -12.765625 4.203125 -14.140625 C 5.203125 -15.515625 6.488281 -16.625 8.0625 -17.46875 C 9.632812 -18.320312 11.304688 -19.035156 13.078125 -19.609375 C 14.859375 -20.179688 16.535156 -20.726562 18.109375 -21.25 C 19.679688 -21.78125 20.976562 -22.394531 22 -23.09375 C 23.03125 -23.800781 23.546875 -24.726562 23.546875 -25.875 L 23.546875 -30.96875 C 23.546875 -32.769531 23.257812 -34.207031 22.6875 -35.28125 C 22.113281 -36.363281 21.335938 -37.128906 20.359375 -37.578125 C 19.390625 -38.023438 18.226562 -38.25 16.875 -38.25 C 15.726562 -38.25 14.503906 -38.085938 13.203125 -37.765625 C 11.898438 -37.441406 10.875 -36.800781 10.125 -35.84375 C 11.226562 -35.550781 12.140625 -34.96875 12.859375 -34.09375 C 13.585938 -33.21875 13.953125 -32.128906 13.953125 -30.828125 C 13.953125 -29.421875 13.488281 -28.316406 12.5625 -27.515625 C 11.632812 -26.722656 10.472656 -26.328125 9.078125 -26.328125 C 7.523438 -26.328125 6.375 -26.8125 5.625 -27.78125 C 4.875 -28.757812 4.5 -29.898438 4.5 -31.203125 C 4.5 -32.546875 4.835938 -33.644531 5.515625 -34.5 C 6.191406 -35.351562 7.078125 -36.15625 8.171875 -36.90625 C 9.367188 -37.695312 10.90625 -38.367188 12.78125 -38.921875 C 14.65625 -39.472656 16.742188 -39.75 19.046875 -39.75 C 21.203125 -39.75 23.066406 -39.507812 24.640625 -39.03125 C 26.210938 -38.5625 27.523438 -37.800781 28.578125 -36.75 C 29.828125 -35.601562 30.648438 -34.164062 31.046875 -32.4375 C 31.453125 -30.707031 31.65625 -28.617188 31.65625 -26.171875 L 31.65625 -5.46875 C 31.65625 -4.21875 31.816406 -3.332031 32.140625 -2.8125 C 32.460938 -2.289062 33 -2.03125 33.75 -2.03125 C 34.25 -2.03125 34.734375 -2.15625 35.203125 -2.40625 C 35.679688 -2.65625 36.25 -3.03125 36.90625 -3.53125 L 37.65625 -2.25 C 36.601562 -1.394531 35.535156 -0.71875 34.453125 -0.21875 C 33.378906 0.28125 32.019531 0.53125 30.375 0.53125 C 28.769531 0.53125 27.46875 0.28125 26.46875 -0.21875 C 25.46875 -0.71875 24.726562 -1.441406 24.25 -2.390625 C 23.78125 -3.347656 23.546875 -4.523438 23.546875 -5.921875 C 22.242188 -3.828125 20.691406 -2.226562 18.890625 -1.125 C 17.097656 -0.0195312 15 0.53125 12.59375 0.53125 Z M 16.203125 -3.078125 C 17.597656 -3.078125 18.90625 -3.472656 20.125 -4.265625 C 21.351562 -5.066406 22.492188 -6.269531 23.546875 -7.875 L 23.546875 -22.796875 C 22.992188 -21.992188 22.191406 -21.304688 21.140625 -20.734375 C 20.097656 -20.160156 18.972656 -19.570312 17.765625 -18.96875 C 16.566406 -18.375 15.429688 -17.6875 14.359375 -16.90625 C 13.285156 -16.132812 12.398438 -15.148438 11.703125 -13.953125 C 11.003906 -12.753906 10.65625 -11.226562 10.65625 -9.375 C 10.65625 -7.425781 11.15625 -5.890625 12.15625 -4.765625 C 13.15625 -3.640625 14.503906 -3.078125 16.203125 -3.078125 Z M 16.203125 -3.078125 "/></g></g><g style="fill:#f76c5e;fill-opacity:1;"><g transform="translate(572.728981, 466.316308)"><path style="stroke:none" d="M 11.015625 -57.59375 C 12.566406 -57.59375 13.867188 -57.101562 14.921875 -56.125 C 15.972656 -55.15625 16.5 -53.945312 16.5 -52.5 C 16.5 -51.050781 15.972656 -49.835938 14.921875 -48.859375 C 13.867188 -47.890625 12.566406 -47.40625 11.015625 -47.40625 C 9.460938 -47.40625 8.160156 -47.890625 7.109375 -48.859375 C 6.066406 -49.835938 5.546875 -51.050781 5.546875 -52.5 C 5.546875 -53.945312 6.066406 -55.15625 7.109375 -56.125 C 8.160156 -57.101562 9.460938 -57.59375 11.015625 -57.59375 Z M 15.53125 -39.53125 L 15.53125 -6.96875 C 15.53125 -4.875 15.941406 -3.453125 16.765625 -2.703125 C 17.585938 -1.953125 18.972656 -1.578125 20.921875 -1.578125 L 20.921875 0 C 20.078125 -0.0507812 18.765625 -0.113281 16.984375 -0.1875 C 15.210938 -0.257812 13.398438 -0.296875 11.546875 -0.296875 C 9.796875 -0.296875 7.992188 -0.257812 6.140625 -0.1875 C 4.296875 -0.113281 2.925781 -0.0507812 2.03125 0 L 2.03125 -1.578125 C 3.976562 -1.578125 5.363281 -1.953125 6.1875 -2.703125 C 7.007812 -3.453125 7.421875 -4.875 7.421875 -6.96875 L 7.421875 -30.53125 C 7.421875 -32.78125 7.046875 -34.441406 6.296875 -35.515625 C 5.546875 -36.585938 4.125 -37.125 2.03125 -37.125 L 2.03125 -38.703125 C 3.625 -38.546875 5.171875 -38.46875 6.671875 -38.46875 C 8.367188 -38.46875 9.957031 -38.554688 11.4375 -38.734375 C 12.914062 -38.910156 14.28125 -39.175781 15.53125 -39.53125 Z M 15.53125 -39.53125 "/></g></g><g style="fill:#f76c5e;fill-opacity:1;"><g transform="translate(595.603957, 466.316308)"><path style="stroke:none" d="M 15.078125 -58.796875 L 15.078125 -6.96875 C 15.078125 -4.875 15.488281 -3.453125 16.3125 -2.703125 C 17.132812 -1.953125 18.519531 -1.578125 20.46875 -1.578125 L 20.46875 0 C 19.625 -0.0507812 18.300781 -0.113281 16.5 -0.1875 C 14.695312 -0.257812 12.894531 -0.296875 11.09375 -0.296875 C 9.300781 -0.296875 7.488281 -0.257812 5.65625 -0.1875 C 3.832031 -0.113281 2.472656 -0.0507812 1.578125 0 L 1.578125 -1.578125 C 3.523438 -1.578125 4.910156 -1.953125 5.734375 -2.703125 C 6.554688 -3.453125 6.96875 -4.875 6.96875 -6.96875 L 6.96875 -49.796875 C 6.96875 -52.046875 6.59375 -53.707031 5.84375 -54.78125 C 5.09375 -55.863281 3.671875 -56.40625 1.578125 -56.40625 L 1.578125 -57.96875 C 3.171875 -57.820312 4.71875 -57.75 6.21875 -57.75 C 7.875 -57.75 9.453125 -57.835938 10.953125 -58.015625 C 12.453125 -58.191406 13.828125 -58.453125 15.078125 -58.796875 Z M 15.078125 -58.796875 "/></g></g><g style="fill:#f76c5e;fill-opacity:1;"><g transform="translate(618.02894, 466.316308)"><path style="stroke:none" d="M 15.96875 -39.75 C 17.96875 -39.75 19.707031 -39.4375 21.1875 -38.8125 C 22.664062 -38.1875 23.726562 -37.625 24.375 -37.125 C 26.019531 -35.820312 27.046875 -36.671875 27.453125 -39.671875 L 29.09375 -39.671875 C 29 -38.273438 28.925781 -36.585938 28.875 -34.609375 C 28.820312 -32.640625 28.796875 -30.03125 28.796875 -26.78125 L 27.15625 -26.78125 C 26.851562 -28.625 26.335938 -30.421875 25.609375 -32.171875 C 24.890625 -33.921875 23.84375 -35.367188 22.46875 -36.515625 C 21.09375 -37.671875 19.300781 -38.25 17.09375 -38.25 C 15.445312 -38.25 14.070312 -37.785156 12.96875 -36.859375 C 11.875 -35.929688 11.328125 -34.570312 11.328125 -32.78125 C 11.328125 -31.28125 11.773438 -29.976562 12.671875 -28.875 C 13.578125 -27.769531 14.738281 -26.742188 16.15625 -25.796875 C 17.582031 -24.847656 19.125 -23.820312 20.78125 -22.71875 C 22.625 -21.46875 24.28125 -20.226562 25.75 -19 C 27.226562 -17.78125 28.40625 -16.421875 29.28125 -14.921875 C 30.15625 -13.421875 30.59375 -11.671875 30.59375 -9.671875 C 30.59375 -7.367188 29.976562 -5.414062 28.75 -3.8125 C 27.53125 -2.21875 25.921875 -1.007812 23.921875 -0.1875 C 21.921875 0.632812 19.722656 1.046875 17.328125 1.046875 C 16.128906 1.046875 15.003906 0.929688 13.953125 0.703125 C 12.898438 0.484375 11.925781 0.195312 11.03125 -0.15625 C 10.476562 -0.445312 9.9375 -0.753906 9.40625 -1.078125 C 8.882812 -1.410156 8.375 -1.726562 7.875 -2.03125 C 7.375 -2.375 6.921875 -2.320312 6.515625 -1.875 C 6.117188 -1.425781 5.820312 -0.625 5.625 0.53125 L 3.96875 0.53125 C 4.070312 -1.070312 4.148438 -3.023438 4.203125 -5.328125 C 4.253906 -7.628906 4.28125 -10.675781 4.28125 -14.46875 L 5.921875 -14.46875 C 6.273438 -11.71875 6.800781 -9.289062 7.5 -7.1875 C 8.195312 -5.09375 9.234375 -3.457031 10.609375 -2.28125 C 11.984375 -1.113281 13.875 -0.53125 16.28125 -0.53125 C 17.226562 -0.53125 18.175781 -0.738281 19.125 -1.15625 C 20.070312 -1.582031 20.859375 -2.269531 21.484375 -3.21875 C 22.109375 -4.175781 22.421875 -5.453125 22.421875 -7.046875 C 22.421875 -9.242188 21.65625 -11.054688 20.125 -12.484375 C 18.601562 -13.910156 16.644531 -15.425781 14.25 -17.03125 C 12.550781 -18.226562 10.9375 -19.410156 9.40625 -20.578125 C 7.882812 -21.753906 6.648438 -23.082031 5.703125 -24.5625 C 4.753906 -26.039062 4.28125 -27.800781 4.28125 -29.84375 C 4.28125 -32.09375 4.816406 -33.941406 5.890625 -35.390625 C 6.960938 -36.847656 8.398438 -37.9375 10.203125 -38.65625 C 12.003906 -39.382812 13.925781 -39.75 15.96875 -39.75 Z M 15.96875 -39.75 "/></g></g><g style="fill:#e09f3e;fill-opacity:1;"><g transform="translate(355.296314, 387.665775)"><path style="stroke:none" d="M 31.40625 -70.796875 L 31.40625 -68.796875 C 29.132812 -68.734375 27.414062 -68.484375 26.25 -68.046875 C 25.082031 -67.617188 24.296875 -66.820312 23.890625 -65.65625 C 23.492188 -64.488281 23.296875 -62.671875 23.296875 -60.203125 L 23.296875 -10.203125 C 23.296875 -7.929688 23.476562 -6.226562 23.84375 -5.09375 C 24.21875 -3.96875 24.953125 -3.21875 26.046875 -2.84375 C 27.148438 -2.476562 28.734375 -2.296875 30.796875 -2.296875 L 37.296875 -2.296875 C 40.160156 -2.296875 42.578125 -2.695312 44.546875 -3.5 C 46.515625 -4.300781 48.164062 -5.5 49.5 -7.09375 C 50.832031 -8.695312 51.863281 -10.765625 52.59375 -13.296875 C 53.332031 -15.828125 53.898438 -18.796875 54.296875 -22.203125 L 56.59375 -22.203125 C 56.394531 -20.066406 56.296875 -17.265625 56.296875 -13.796875 C 56.296875 -12.460938 56.34375 -10.507812 56.4375 -7.9375 C 56.539062 -5.375 56.726562 -2.726562 57 0 C 53.601562 -0.132812 49.769531 -0.21875 45.5 -0.25 C 41.226562 -0.28125 37.425781 -0.296875 34.09375 -0.296875 C 32.5625 -0.296875 30.59375 -0.296875 28.1875 -0.296875 C 25.789062 -0.296875 23.207031 -0.28125 20.4375 -0.25 C 17.675781 -0.21875 14.878906 -0.179688 12.046875 -0.140625 C 9.210938 -0.109375 6.5 -0.0625 3.90625 0 L 3.90625 -2 C 6.164062 -2.132812 7.863281 -2.398438 9 -2.796875 C 10.132812 -3.203125 10.882812 -4.003906 11.25 -5.203125 C 11.613281 -6.398438 11.796875 -8.195312 11.796875 -10.59375 L 11.796875 -60.203125 C 11.796875 -62.671875 11.613281 -64.488281 11.25 -65.65625 C 10.882812 -66.820312 10.117188 -67.617188 8.953125 -68.046875 C 7.785156 -68.484375 6.101562 -68.734375 3.90625 -68.796875 L 3.90625 -70.796875 C 5.4375 -70.734375 7.414062 -70.664062 9.84375 -70.59375 C 12.28125 -70.53125 14.898438 -70.5 17.703125 -70.5 C 20.234375 -70.5 22.75 -70.53125 25.25 -70.59375 C 27.75 -70.664062 29.800781 -70.734375 31.40625 -70.796875 Z M 31.40625 -70.796875 "/></g></g><g style="fill:#e09f3e;fill-opacity:1;"><g transform="translate(415.394009, 387.665775)"><path style="stroke:none" d="M 16.796875 0.703125 C 13.992188 0.703125 11.59375 0.171875 9.59375 -0.890625 C 7.59375 -1.960938 6.09375 -3.429688 5.09375 -5.296875 C 4.09375 -7.160156 3.59375 -9.296875 3.59375 -11.703125 C 3.59375 -14.628906 4.257812 -17.007812 5.59375 -18.84375 C 6.925781 -20.675781 8.644531 -22.160156 10.75 -23.296875 C 12.851562 -24.429688 15.085938 -25.378906 17.453125 -26.140625 C 19.816406 -26.910156 22.046875 -27.644531 24.140625 -28.34375 C 26.242188 -29.050781 27.976562 -29.867188 29.34375 -30.796875 C 30.71875 -31.734375 31.40625 -32.96875 31.40625 -34.5 L 31.40625 -41.296875 C 31.40625 -43.703125 31.019531 -45.617188 30.25 -47.046875 C 29.476562 -48.484375 28.441406 -49.5 27.140625 -50.09375 C 25.847656 -50.695312 24.300781 -51 22.5 -51 C 20.96875 -51 19.332031 -50.78125 17.59375 -50.34375 C 15.863281 -49.914062 14.5 -49.066406 13.5 -47.796875 C 14.96875 -47.398438 16.179688 -46.617188 17.140625 -45.453125 C 18.109375 -44.285156 18.59375 -42.832031 18.59375 -41.09375 C 18.59375 -39.226562 17.976562 -37.757812 16.75 -36.6875 C 15.519531 -35.625 13.96875 -35.09375 12.09375 -35.09375 C 10.03125 -35.09375 8.5 -35.742188 7.5 -37.046875 C 6.5 -38.347656 6 -39.863281 6 -41.59375 C 6 -43.394531 6.445312 -44.863281 7.34375 -46 C 8.25 -47.132812 9.4375 -48.203125 10.90625 -49.203125 C 12.5 -50.265625 14.546875 -51.160156 17.046875 -51.890625 C 19.546875 -52.628906 22.332031 -53 25.40625 -53 C 28.269531 -53 30.75 -52.679688 32.84375 -52.046875 C 34.945312 -51.410156 36.695312 -50.394531 38.09375 -49 C 39.757812 -47.46875 40.859375 -45.550781 41.390625 -43.25 C 41.929688 -40.945312 42.203125 -38.164062 42.203125 -34.90625 L 42.203125 -7.296875 C 42.203125 -5.628906 42.414062 -4.445312 42.84375 -3.75 C 43.28125 -3.050781 44 -2.703125 45 -2.703125 C 45.664062 -2.703125 46.316406 -2.867188 46.953125 -3.203125 C 47.585938 -3.535156 48.335938 -4.035156 49.203125 -4.703125 L 50.203125 -3 C 48.796875 -1.863281 47.375 -0.960938 45.9375 -0.296875 C 44.507812 0.367188 42.695312 0.703125 40.5 0.703125 C 38.363281 0.703125 36.628906 0.367188 35.296875 -0.296875 C 33.960938 -0.960938 32.976562 -1.925781 32.34375 -3.1875 C 31.71875 -4.457031 31.40625 -6.03125 31.40625 -7.90625 C 29.664062 -5.101562 27.59375 -2.96875 25.1875 -1.5 C 22.789062 -0.03125 19.992188 0.703125 16.796875 0.703125 Z M 21.59375 -4.09375 C 23.46875 -4.09375 25.21875 -4.625 26.84375 -5.6875 C 28.476562 -6.757812 30 -8.363281 31.40625 -10.5 L 31.40625 -30.40625 C 30.664062 -29.332031 29.59375 -28.410156 28.1875 -27.640625 C 26.789062 -26.878906 25.289062 -26.097656 23.6875 -25.296875 C 22.09375 -24.492188 20.578125 -23.578125 19.140625 -22.546875 C 17.710938 -21.515625 16.53125 -20.195312 15.59375 -18.59375 C 14.664062 -17 14.203125 -14.96875 14.203125 -12.5 C 14.203125 -9.894531 14.867188 -7.84375 16.203125 -6.34375 C 17.535156 -4.84375 19.332031 -4.09375 21.59375 -4.09375 Z M 21.59375 -4.09375 "/></g></g><g style="fill:#e09f3e;fill-opacity:1;"><g transform="translate(466.39205, 387.665775)"><path style="stroke:none" d="M 20 -78.40625 L 20 -9.296875 C 20 -6.492188 20.484375 -4.59375 21.453125 -3.59375 C 22.421875 -2.59375 24.070312 -2.09375 26.40625 -2.09375 L 26.40625 0 C 25.269531 -0.0625 23.582031 -0.144531 21.34375 -0.25 C 19.113281 -0.351562 16.863281 -0.40625 14.59375 -0.40625 C 12.257812 -0.40625 9.875 -0.351562 7.4375 -0.25 C 5.007812 -0.144531 3.195312 -0.0625 2 0 L 2 -2.09375 C 4.601562 -2.09375 6.453125 -2.59375 7.546875 -3.59375 C 8.648438 -4.59375 9.203125 -6.492188 9.203125 -9.296875 L 9.203125 -66.40625 C 9.203125 -69.40625 8.679688 -71.617188 7.640625 -73.046875 C 6.609375 -74.484375 4.726562 -75.203125 2 -75.203125 L 2 -77.296875 C 4.132812 -77.097656 6.203125 -77 8.203125 -77 C 10.398438 -77 12.5 -77.113281 14.5 -77.34375 C 16.5 -77.582031 18.332031 -77.9375 20 -78.40625 Z M 52 -51.59375 L 52 -49.59375 C 50.195312 -49.332031 48.460938 -48.734375 46.796875 -47.796875 C 45.128906 -46.867188 43.5 -45.570312 41.90625 -43.90625 L 29.90625 -31.296875 L 31.203125 -33.796875 L 49.296875 -7.296875 C 50.296875 -5.898438 51.257812 -4.75 52.1875 -3.84375 C 53.125 -2.945312 54.296875 -2.363281 55.703125 -2.09375 L 55.703125 0 C 54.835938 -0.0625 53.550781 -0.144531 51.84375 -0.25 C 50.144531 -0.351562 48.460938 -0.40625 46.796875 -0.40625 C 44.597656 -0.40625 42.363281 -0.351562 40.09375 -0.25 C 37.832031 -0.144531 36.164062 -0.0625 35.09375 0 L 35.09375 -2.09375 C 36.425781 -2.09375 37.34375 -2.425781 37.84375 -3.09375 C 38.34375 -3.757812 38.257812 -4.5625 37.59375 -5.5 L 26.59375 -22.703125 C 25.46875 -24.296875 24.4375 -25.328125 23.5 -25.796875 C 22.5625 -26.265625 21.226562 -26.53125 19.5 -26.59375 L 19.5 -28.59375 C 21.4375 -28.800781 23.019531 -29.171875 24.25 -29.703125 C 25.476562 -30.234375 26.628906 -31.097656 27.703125 -32.296875 L 35.203125 -39.90625 C 37.335938 -42.03125 38.40625 -43.8125 38.40625 -45.25 C 38.40625 -46.6875 37.71875 -47.753906 36.34375 -48.453125 C 34.976562 -49.148438 33.164062 -49.53125 30.90625 -49.59375 L 30.90625 -51.59375 C 32.695312 -51.53125 34.675781 -51.445312 36.84375 -51.34375 C 39.007812 -51.25 40.828125 -51.203125 42.296875 -51.203125 C 43.492188 -51.203125 44.707031 -51.21875 45.9375 -51.25 C 47.175781 -51.28125 48.328125 -51.328125 49.390625 -51.390625 C 50.460938 -51.460938 51.332031 -51.53125 52 -51.59375 Z M 52 -51.59375 "/></g></g><g style="fill:#e09f3e;fill-opacity:1;"><g transform="translate(523.089878, 387.665775)"><path style="stroke:none" d="M 21.296875 -53 C 23.960938 -53 26.28125 -52.582031 28.25 -51.75 C 30.21875 -50.914062 31.632812 -50.164062 32.5 -49.5 C 34.695312 -47.769531 36.0625 -48.90625 36.59375 -52.90625 L 38.796875 -52.90625 C 38.660156 -51.03125 38.5625 -48.773438 38.5 -46.140625 C 38.4375 -43.515625 38.40625 -40.035156 38.40625 -35.703125 L 36.203125 -35.703125 C 35.796875 -38.171875 35.109375 -40.570312 34.140625 -42.90625 C 33.179688 -45.238281 31.785156 -47.171875 29.953125 -48.703125 C 28.117188 -50.234375 25.734375 -51 22.796875 -51 C 20.597656 -51 18.765625 -50.378906 17.296875 -49.140625 C 15.828125 -47.910156 15.09375 -46.097656 15.09375 -43.703125 C 15.09375 -41.703125 15.691406 -39.96875 16.890625 -38.5 C 18.097656 -37.03125 19.648438 -35.660156 21.546875 -34.390625 C 23.453125 -33.128906 25.503906 -31.765625 27.703125 -30.296875 C 30.171875 -28.628906 32.382812 -26.976562 34.34375 -25.34375 C 36.3125 -23.71875 37.878906 -21.90625 39.046875 -19.90625 C 40.210938 -17.90625 40.796875 -15.570312 40.796875 -12.90625 C 40.796875 -9.832031 39.976562 -7.226562 38.34375 -5.09375 C 36.71875 -2.96875 34.570312 -1.351562 31.90625 -0.25 C 29.238281 0.851562 26.300781 1.40625 23.09375 1.40625 C 21.5 1.40625 20 1.253906 18.59375 0.953125 C 17.195312 0.648438 15.898438 0.265625 14.703125 -0.203125 C 13.960938 -0.597656 13.242188 -1.007812 12.546875 -1.4375 C 11.847656 -1.875 11.164062 -2.296875 10.5 -2.703125 C 9.832031 -3.171875 9.234375 -3.101562 8.703125 -2.5 C 8.171875 -1.894531 7.769531 -0.828125 7.5 0.703125 L 5.296875 0.703125 C 5.429688 -1.429688 5.53125 -4.03125 5.59375 -7.09375 C 5.664062 -10.164062 5.703125 -14.234375 5.703125 -19.296875 L 7.90625 -19.296875 C 8.363281 -15.628906 9.0625 -12.394531 10 -9.59375 C 10.9375 -6.800781 12.320312 -4.617188 14.15625 -3.046875 C 15.988281 -1.484375 18.503906 -0.703125 21.703125 -0.703125 C 22.960938 -0.703125 24.226562 -0.984375 25.5 -1.546875 C 26.769531 -2.117188 27.820312 -3.035156 28.65625 -4.296875 C 29.488281 -5.566406 29.90625 -7.269531 29.90625 -9.40625 C 29.90625 -12.332031 28.882812 -14.742188 26.84375 -16.640625 C 24.8125 -18.546875 22.195312 -20.566406 19 -22.703125 C 16.726562 -24.296875 14.578125 -25.875 12.546875 -27.4375 C 10.515625 -29.007812 8.863281 -30.78125 7.59375 -32.75 C 6.332031 -34.71875 5.703125 -37.066406 5.703125 -39.796875 C 5.703125 -42.796875 6.414062 -45.257812 7.84375 -47.1875 C 9.28125 -49.125 11.195312 -50.578125 13.59375 -51.546875 C 16 -52.515625 18.566406 -53 21.296875 -53 Z M 21.296875 -53 "/></g></g><g style="fill:#e09f3e;fill-opacity:1;"><g transform="translate(568.788126, 387.665775)"><path style="stroke:none" d="M 20 -78.296875 L 20 -41.90625 C 21.664062 -46.03125 24.015625 -48.910156 27.046875 -50.546875 C 30.078125 -52.179688 33.296875 -53 36.703125 -53 C 39.367188 -53 41.550781 -52.648438 43.25 -51.953125 C 44.945312 -51.253906 46.363281 -50.300781 47.5 -49.09375 C 48.695312 -47.832031 49.5625 -46.203125 50.09375 -44.203125 C 50.632812 -42.203125 50.90625 -39.5 50.90625 -36.09375 L 50.90625 -9.296875 C 50.90625 -6.492188 51.453125 -4.59375 52.546875 -3.59375 C 53.648438 -2.59375 55.5 -2.09375 58.09375 -2.09375 L 58.09375 0 C 56.894531 -0.0625 55.09375 -0.144531 52.6875 -0.25 C 50.289062 -0.351562 47.960938 -0.40625 45.703125 -0.40625 C 43.367188 -0.40625 41.082031 -0.351562 38.84375 -0.25 C 36.613281 -0.144531 34.96875 -0.0625 33.90625 0 L 33.90625 -2.09375 C 36.164062 -2.09375 37.757812 -2.59375 38.6875 -3.59375 C 39.625 -4.59375 40.09375 -6.492188 40.09375 -9.296875 L 40.09375 -38.90625 C 40.09375 -40.832031 39.925781 -42.578125 39.59375 -44.140625 C 39.257812 -45.710938 38.539062 -46.984375 37.4375 -47.953125 C 36.34375 -48.921875 34.726562 -49.40625 32.59375 -49.40625 C 30.195312 -49.40625 28.046875 -48.71875 26.140625 -47.34375 C 24.242188 -45.976562 22.742188 -44.09375 21.640625 -41.6875 C 20.546875 -39.289062 20 -36.5625 20 -33.5 L 20 -9.296875 C 20 -6.492188 20.460938 -4.59375 21.390625 -3.59375 C 22.328125 -2.59375 23.929688 -2.09375 26.203125 -2.09375 L 26.203125 0 C 25.066406 -0.0625 23.414062 -0.144531 21.25 -0.25 C 19.082031 -0.351562 16.863281 -0.40625 14.59375 -0.40625 C 12.257812 -0.40625 9.875 -0.351562 7.4375 -0.25 C 5.007812 -0.144531 3.195312 -0.0625 2 0 L 2 -2.09375 C 4.601562 -2.09375 6.453125 -2.59375 7.546875 -3.59375 C 8.648438 -4.59375 9.203125 -6.492188 9.203125 -9.296875 L 9.203125 -66.296875 C 9.203125 -69.296875 8.679688 -71.507812 7.640625 -72.9375 C 6.609375 -74.375 4.726562 -75.09375 2 -75.09375 L 2 -77.203125 C 4.132812 -77.003906 6.203125 -76.90625 8.203125 -76.90625 C 10.398438 -76.90625 12.5 -77.019531 14.5 -77.25 C 16.5 -77.476562 18.332031 -77.828125 20 -78.296875 Z M 20 -78.296875 "/></g></g><g style="fill:#e09f3e;fill-opacity:1;"><g transform="translate(628.785834, 387.665775)"><path style="stroke:none" d="M 36.796875 -53 C 39.328125 -53 41.457031 -52.648438 43.1875 -51.953125 C 44.925781 -51.253906 46.332031 -50.300781 47.40625 -49.09375 C 48.601562 -47.832031 49.429688 -46.148438 49.890625 -44.046875 C 50.359375 -41.953125 50.59375 -39.300781 50.59375 -36.09375 L 50.59375 -9.296875 C 50.59375 -6.492188 51.125 -4.59375 52.1875 -3.59375 C 53.257812 -2.59375 55.0625 -2.09375 57.59375 -2.09375 L 57.59375 0 C 56.46875 -0.0625 54.71875 -0.144531 52.34375 -0.25 C 49.976562 -0.351562 47.664062 -0.40625 45.40625 -0.40625 C 43.132812 -0.40625 40.914062 -0.351562 38.75 -0.25 C 36.582031 -0.144531 34.929688 -0.0625 33.796875 0 L 33.796875 -2.09375 C 35.992188 -2.09375 37.539062 -2.59375 38.4375 -3.59375 C 39.34375 -4.59375 39.796875 -6.492188 39.796875 -9.296875 L 39.796875 -38.90625 C 39.796875 -40.832031 39.660156 -42.578125 39.390625 -44.140625 C 39.128906 -45.710938 38.515625 -46.984375 37.546875 -47.953125 C 36.578125 -48.921875 35.0625 -49.40625 33 -49.40625 C 30.664062 -49.40625 28.582031 -48.703125 26.75 -47.296875 C 24.914062 -45.898438 23.445312 -43.984375 22.34375 -41.546875 C 21.25 -39.117188 20.703125 -36.40625 20.703125 -33.40625 L 20.703125 -9.296875 C 20.703125 -6.492188 21.164062 -4.59375 22.09375 -3.59375 C 23.03125 -2.59375 24.566406 -2.09375 26.703125 -2.09375 L 26.703125 0 C 25.628906 -0.0625 24.023438 -0.144531 21.890625 -0.25 C 19.765625 -0.351562 17.566406 -0.40625 15.296875 -0.40625 C 13.035156 -0.40625 10.671875 -0.351562 8.203125 -0.25 C 5.734375 -0.144531 3.898438 -0.0625 2.703125 0 L 2.703125 -2.09375 C 5.296875 -2.09375 7.144531 -2.59375 8.25 -3.59375 C 9.351562 -4.59375 9.90625 -6.492188 9.90625 -9.296875 L 9.90625 -40.703125 C 9.90625 -43.703125 9.40625 -45.914062 8.40625 -47.34375 C 7.40625 -48.78125 5.503906 -49.5 2.703125 -49.5 L 2.703125 -51.59375 C 4.835938 -51.394531 6.90625 -51.296875 8.90625 -51.296875 C 11.164062 -51.296875 13.28125 -51.410156 15.25 -51.640625 C 17.21875 -51.878906 19.035156 -52.234375 20.703125 -52.703125 L 20.703125 -41.796875 C 22.429688 -45.796875 24.742188 -48.660156 27.640625 -50.390625 C 30.546875 -52.128906 33.597656 -53 36.796875 -53 Z M 66.90625 -53 C 69.4375 -53 71.566406 -52.648438 73.296875 -51.953125 C 75.035156 -51.253906 76.4375 -50.300781 77.5 -49.09375 C 78.695312 -47.832031 79.53125 -46.148438 80 -44.046875 C 80.46875 -41.953125 80.703125 -39.300781 80.703125 -36.09375 L 80.703125 -9.296875 C 80.703125 -6.492188 81.25 -4.59375 82.34375 -3.59375 C 83.445312 -2.59375 85.300781 -2.09375 87.90625 -2.09375 L 87.90625 0 C 86.769531 -0.0625 85 -0.144531 82.59375 -0.25 C 80.195312 -0.351562 77.832031 -0.40625 75.5 -0.40625 C 73.226562 -0.40625 71.007812 -0.351562 68.84375 -0.25 C 66.675781 -0.144531 65.03125 -0.0625 63.90625 0 L 63.90625 -2.09375 C 66.101562 -2.09375 67.648438 -2.59375 68.546875 -3.59375 C 69.453125 -4.59375 69.90625 -6.492188 69.90625 -9.296875 L 69.90625 -38.90625 C 69.90625 -40.832031 69.769531 -42.578125 69.5 -44.140625 C 69.226562 -45.710938 68.59375 -46.984375 67.59375 -47.953125 C 66.59375 -48.921875 65.03125 -49.40625 62.90625 -49.40625 C 60.570312 -49.40625 58.488281 -48.6875 56.65625 -47.25 C 54.820312 -45.8125 53.351562 -43.875 52.25 -41.4375 C 51.144531 -39.007812 50.59375 -36.296875 50.59375 -33.296875 L 50.203125 -41.59375 C 52.003906 -46 54.421875 -49 57.453125 -50.59375 C 60.484375 -52.195312 63.632812 -53 66.90625 -53 Z M 66.90625 -53 "/></g></g><g style="fill:#e09f3e;fill-opacity:1;"><g transform="translate(718.682376, 387.665775)"><path style="stroke:none" d="M 14.703125 -76.796875 C 16.765625 -76.796875 18.492188 -76.144531 19.890625 -74.84375 C 21.296875 -73.550781 22 -71.9375 22 -70 C 22 -68.0625 21.296875 -66.441406 19.890625 -65.140625 C 18.492188 -63.847656 16.765625 -63.203125 14.703125 -63.203125 C 12.628906 -63.203125 10.890625 -63.847656 9.484375 -65.140625 C 8.085938 -66.441406 7.390625 -68.0625 7.390625 -70 C 7.390625 -71.9375 8.085938 -73.550781 9.484375 -74.84375 C 10.890625 -76.144531 12.628906 -76.796875 14.703125 -76.796875 Z M 20.703125 -52.703125 L 20.703125 -9.296875 C 20.703125 -6.492188 21.25 -4.59375 22.34375 -3.59375 C 23.445312 -2.59375 25.300781 -2.09375 27.90625 -2.09375 L 27.90625 0 C 26.769531 -0.0625 25.015625 -0.144531 22.640625 -0.25 C 20.273438 -0.351562 17.863281 -0.40625 15.40625 -0.40625 C 13.070312 -0.40625 10.671875 -0.351562 8.203125 -0.25 C 5.734375 -0.144531 3.898438 -0.0625 2.703125 0 L 2.703125 -2.09375 C 5.296875 -2.09375 7.144531 -2.59375 8.25 -3.59375 C 9.351562 -4.59375 9.90625 -6.492188 9.90625 -9.296875 L 9.90625 -40.703125 C 9.90625 -43.703125 9.40625 -45.914062 8.40625 -47.34375 C 7.40625 -48.78125 5.503906 -49.5 2.703125 -49.5 L 2.703125 -51.59375 C 4.835938 -51.394531 6.90625 -51.296875 8.90625 -51.296875 C 11.164062 -51.296875 13.28125 -51.410156 15.25 -51.640625 C 17.21875 -51.878906 19.035156 -52.234375 20.703125 -52.703125 Z M 20.703125 -52.703125 "/></g></g><path style=" stroke:none;fill-rule:nonzero;fill:#f76c5f;fill-opacity:1;" d="M 600.703125 201.371094 C 592.539062 200.691406 584.605469 195.25 584.605469 195.25 C 575.085938 196.613281 562.84375 197.972656 562.84375 197.972656 C 568.285156 191.394531 582.339844 186.410156 582.339844 186.410156 C 585.285156 172.128906 614.980469 161.929688 624.730469 194.117188 C 634.476562 226.308594 599.339844 255.324219 599.339844 255.324219 C 623.59375 225.855469 608.863281 202.050781 600.703125 201.371094 "/><g clip-rule="nonzero" clip-path="url(#21390bea62)"><path style=" stroke:none;fill-rule:nonzero;fill:#f76c5f;fill-opacity:1;" d="M 604.375 164.726562 C 604.015625 165.722656 603.484375 166.648438 603.054688 167.59375 L 601.4375 170.257812 L 602.425781 167.339844 C 602.636719 166.335938 602.9375 165.363281 603.0625 164.371094 C 603.375 162.386719 603.371094 160.398438 603.109375 158.511719 C 602.777344 156.628906 602.140625 154.863281 601.210938 153.308594 C 600.730469 152.480469 600.097656 151.648438 599.433594 150.949219 C 598.601562 150.070312 598.535156 148.730469 599.304688 147.796875 L 599.394531 147.683594 C 600.433594 146.429688 602.417969 146.5625 603.261719 147.957031 C 603.984375 149.144531 604.496094 150.359375 604.945312 151.664062 C 605.671875 153.875 605.933594 156.175781 605.828125 158.394531 C 605.648438 160.617188 605.15625 162.746094 604.375 164.726562 "/></g><path style=" stroke:none;fill-rule:nonzero;fill:#f76c5f;fill-opacity:1;" d="M 597.921875 167.636719 C 597.660156 168.53125 597.3125 169.398438 597.019531 170.257812 C 597.09375 169.335938 597.214844 168.433594 597.25 167.535156 C 597.183594 166.632812 597.28125 165.742188 597.074219 164.875 C 596.898438 163.125 596.195312 161.519531 595.359375 160.136719 C 594.492188 158.75 593.324219 157.621094 591.992188 156.753906 C 591.355469 156.339844 590.628906 155.957031 589.902344 155.648438 C 588.765625 155.164062 588.1875 153.898438 588.578125 152.722656 L 588.601562 152.660156 C 589.121094 151.113281 591.011719 150.535156 592.304688 151.523438 C 593.167969 152.179688 593.933594 152.894531 594.6875 153.691406 C 596.101562 155.226562 597.207031 157.054688 597.832031 158.996094 C 598.425781 160.933594 598.710938 162.941406 598.4375 164.851562 C 598.417969 165.808594 598.085938 166.722656 597.921875 167.636719 "/><path style=" stroke:none;fill-rule:nonzero;fill:#f76c5f;fill-opacity:1;" d="M 592.875 166.6875 C 593.394531 168.394531 593.339844 170.136719 593.238281 171.789062 C 592.890625 170.152344 592.476562 168.542969 591.621094 167.21875 C 590.863281 165.847656 589.710938 164.835938 588.429688 164.230469 C 587.152344 163.613281 585.734375 163.363281 584.300781 163.359375 C 583.664062 163.359375 582.984375 163.410156 582.324219 163.503906 C 581.09375 163.679688 579.953125 162.816406 579.722656 161.589844 C 579.421875 159.972656 580.816406 158.574219 582.445312 158.808594 C 583.285156 158.925781 584.101562 159.105469 584.945312 159.332031 C 586.769531 159.851562 588.5625 160.71875 589.992188 162.003906 C 591.4375 163.273438 592.460938 164.953125 592.875 166.6875 "/><path style=" stroke:none;fill-rule:nonzero;fill:#f76c5f;fill-opacity:1;" d="M 565.503906 221.824219 C 568.597656 224.191406 572.335938 226.007812 576.082031 227.238281 C 579.863281 228.464844 583.917969 228.949219 587.898438 228.242188 C 591.84375 227.511719 595.71875 225.570312 598.539062 222.457031 C 596.164062 225.925781 592.460938 228.523438 588.324219 229.886719 C 584.164062 231.238281 579.609375 231.328125 575.285156 230.542969 C 570.929688 229.730469 566.769531 228.371094 562.84375 226.175781 L 559.871094 224.527344 C 558.707031 223.804688 557.71875 222.820312 556.570312 222.042969 C 555.726562 221.46875 554.988281 220.753906 554.296875 220 L 552.199219 217.710938 C 546.042969 210.746094 542.867188 201.824219 541.117188 193.0625 C 540.234375 188.644531 539.761719 184.183594 539.609375 179.714844 C 539.535156 177.613281 539.507812 175.570312 539.558594 173.5 C 539.652344 169.570312 543.300781 166.6875 547.15625 167.449219 C 550.527344 168.117188 552.726562 171.335938 552.183594 174.726562 C 551.902344 176.484375 551.671875 178.28125 551.507812 180.023438 C 551.105469 183.929688 550.992188 187.863281 551.230469 191.746094 C 551.710938 199.480469 553.371094 207.269531 557.613281 213.589844 L 559.039062 215.667969 C 559.535156 216.394531 560.078125 217.09375 560.742188 217.667969 C 561.59375 218.414062 562.289062 219.371094 563.175781 220.097656 L 565.503906 221.824219 "/><path style=" stroke:none;fill-rule:nonzero;fill:#f76c5f;fill-opacity:1;" d="M 545.558594 219.828125 C 551.570312 225.164062 558.78125 229.226562 566.46875 232.183594 C 558.460938 230.3125 550.554688 227.234375 543.503906 222.539062 C 536.425781 217.894531 530.199219 211.789062 525.207031 204.765625 C 520.152344 197.769531 516.324219 189.910156 513.46875 181.734375 C 512.046875 177.640625 510.875 173.457031 509.9375 169.203125 C 509.488281 167.070312 509.066406 164.929688 508.742188 162.75 C 508.652344 162.152344 508.570312 161.375 508.488281 160.511719 C 508.128906 156.671875 511.191406 153.359375 515.046875 153.417969 C 518.597656 153.472656 521.4375 156.375 521.4375 159.925781 C 521.4375 160.601562 521.4375 161.199219 521.445312 161.636719 C 521.460938 163.558594 521.574219 165.496094 521.707031 167.433594 C 522.011719 171.3125 522.539062 175.1875 523.304688 179.023438 C 524.84375 186.683594 527.292969 194.226562 530.984375 201.179688 C 534.617188 208.15625 539.515625 214.539062 545.558594 219.828125 "/><path style=" stroke:none;fill-rule:nonzero;fill:#f76c5f;fill-opacity:1;" d="M 534.671875 225.773438 C 542.539062 230.019531 551.191406 233.027344 560.125 234.921875 C 551.027344 234.148438 541.9375 232.234375 533.238281 228.855469 C 524.5625 225.460938 516.332031 220.457031 509.339844 213.917969 C 502.324219 207.40625 496.519531 199.480469 492.242188 190.78125 C 490.085938 186.441406 488.308594 181.90625 486.863281 177.246094 C 486.132812 174.917969 485.515625 172.546875 484.980469 170.140625 C 484.960938 170.046875 484.941406 169.953125 484.921875 169.855469 C 484.113281 166.039062 486.988281 162.429688 490.890625 162.324219 L 491.171875 162.320312 C 494.484375 162.238281 497.265625 164.753906 497.566406 168.058594 C 497.570312 168.078125 497.570312 168.097656 497.574219 168.117188 C 497.765625 170.207031 498.042969 172.3125 498.421875 174.40625 C 499.164062 178.59375 500.214844 182.753906 501.632812 186.800781 C 504.433594 194.90625 508.667969 202.550781 514.253906 209.21875 C 519.820312 215.902344 526.820312 221.511719 534.671875 225.773438 "/><path style=" stroke:none;fill-rule:nonzero;fill:#f76c5f;fill-opacity:1;" d="M 474.722656 189.65625 L 474.988281 189.5625 C 478.097656 188.40625 481.542969 189.894531 482.894531 192.917969 C 482.902344 192.9375 482.910156 192.957031 482.921875 192.972656 C 483.777344 194.890625 484.722656 196.792969 485.757812 198.648438 C 487.816406 202.371094 490.160156 205.96875 492.808594 209.339844 C 498.082031 216.101562 504.5625 221.964844 512.003906 226.46875 C 519.4375 230.992188 527.875 234.03125 536.679688 235.523438 C 545.5 236.996094 554.65625 237.046875 563.722656 235.945312 C 554.867188 238.15625 545.644531 239.289062 536.320312 238.90625 C 527.015625 238.5 517.605469 236.429688 508.875 232.503906 C 500.132812 228.609375 492.070312 222.992188 485.210938 216.144531 C 481.765625 212.734375 478.617188 209.015625 475.742188 205.074219 C 474.296875 203.105469 472.945312 201.070312 471.660156 198.960938 C 471.609375 198.878906 471.5625 198.796875 471.511719 198.714844 C 469.515625 195.359375 471.0625 191.015625 474.722656 189.65625 "/><g clip-rule="nonzero" clip-path="url(#211f5c1b88)"><path style=" stroke:none;fill-rule:nonzero;fill:#f76c5f;fill-opacity:1;" d="M 557.742188 248.523438 C 591.066406 244.78125 601.261719 234.921875 601.261719 234.921875 C 601.261719 234.921875 600.25 262.464844 576.105469 271.304688 C 551.960938 280.144531 533.941406 280.828125 528.839844 293.066406 C 528.839844 293.066406 524.421875 252.261719 557.742188 248.523438 "/></g><g style="fill:#000000;fill-opacity:1;"><g transform="translate(1041.599955, 580.599954)"><path style="stroke:none" d="M 4.515625 0 C 4.328125 0 4.171875 -0.0546875 4.046875 -0.171875 C 3.929688 -0.296875 3.875 -0.4375 3.875 -0.59375 L 3.875 -12.640625 L 4.09375 -12.4375 L 1.4375 -10.65625 C 1.332031 -10.582031 1.21875 -10.546875 1.09375 -10.546875 C 0.9375 -10.546875 0.796875 -10.609375 0.671875 -10.734375 C 0.546875 -10.867188 0.484375 -11.019531 0.484375 -11.1875 C 0.484375 -11.394531 0.585938 -11.5625 0.796875 -11.6875 L 4.140625 -13.90625 C 4.222656 -13.957031 4.304688 -13.988281 4.390625 -14 C 4.472656 -14.007812 4.550781 -14.007812 4.625 -14 C 4.789062 -13.988281 4.921875 -13.925781 5.015625 -13.8125 C 5.109375 -13.695312 5.15625 -13.5625 5.15625 -13.40625 L 5.15625 -0.59375 C 5.15625 -0.4375 5.09375 -0.296875 4.96875 -0.171875 C 4.851562 -0.0546875 4.703125 0 4.515625 0 Z M 4.515625 0 "/></g></g></g></svg>